<svg xmlns="http://www.w3.org/2000/svg" width="1024" height="1024" viewBox="0 0 1024 1024">
<g>
<path d="M 0.00 0.00 L 1024.00 0.00 L 1024.00 1024.00 L 0.00 1024.00 ZM 508.88 735.34 C510.09,736.33 510.79,737.10 511.62,737.27 C513.32,737.63 515.55,735.46 523.81,727.43 C524.79,726.48 525.85,725.45 527.00,724.33 C532.78,718.73 540.65,711.59 544.50,708.45 C548.35,705.32 551.72,702.45 552.00,702.09 C552.91,700.88 572.13,686.48 579.50,681.49 C594.25,671.49 622.92,656.13 637.00,650.69 C682.40,633.13 717.77,625.50 759.00,624.37 C769.72,624.08 779.02,623.68 779.67,623.48 C780.46,623.24 778.95,615.79 774.86,599.81 C771.58,586.99 768.53,574.70 768.08,572.50 C767.64,570.30 765.14,560.40 762.54,550.50 C749.97,502.76 745.60,485.89 744.02,478.96 C741.50,467.93 741.08,467.41 733.77,466.10 C715.70,462.85 682.06,462.32 665.00,465.01 C655.73,466.48 641.99,469.72 632.59,472.67 C618.12,477.21 594.74,488.02 590.23,492.25 L 587.83 494.50 L 585.61 491.92 C583.62,489.60 565.61,460.48 552.13,437.74 C540.81,418.67 524.27,382.29 522.41,372.40 C521.68,368.47 524.88,360.67 527.90,359.06 C529.41,358.24 532.32,358.23 538.58,359.01 C548.58,360.25 555.65,359.67 569.50,356.47 C582.38,353.49 589.76,350.70 596.23,346.35 C599.09,344.42 602.79,342.28 604.46,341.57 C608.02,340.08 626.27,322.30 628.38,318.27 C629.18,316.74 631.90,312.35 634.44,308.50 C637.45,303.95 640.24,297.83 642.43,291.00 C647.36,275.65 648.49,269.07 649.60,249.49 C650.21,238.75 650.09,237.32 648.52,236.02 C647.13,234.86 642.96,234.56 628.13,234.54 C606.46,234.52 592.75,236.72 577.83,242.62 C546.21,255.12 524.00,278.14 516.95,305.71 C515.91,309.77 514.72,313.64 514.32,314.30 C513.91,314.96 513.33,324.36 513.04,335.20 C512.48,355.66 511.81,358.75 508.54,356.04 C507.69,355.33 507.00,353.57 507.00,352.13 C507.00,346.90 502.21,330.34 498.65,323.29 C488.82,303.80 468.68,288.65 441.52,280.29 C434.37,278.09 431.24,277.78 412.60,277.39 C401.11,277.15 390.81,277.24 389.71,277.59 C387.80,278.20 387.74,278.83 388.33,291.36 C389.24,310.74 395.07,328.30 405.94,344.40 C412.30,353.83 416.28,357.91 426.56,365.51 C443.29,377.88 455.64,381.57 479.72,381.36 C494.63,381.24 495.98,381.37 496.52,383.06 C497.61,386.49 482.84,418.54 470.74,439.00 C467.97,443.67 464.94,448.85 464.00,450.50 C463.06,452.15 457.36,461.60 451.33,471.50 C450.75,472.45 450.19,473.38 449.64,474.27 C438.28,492.93 434.89,498.49 433.55,498.04 C432.92,497.82 432.75,496.27 432.40,494.12 C431.78,490.25 431.74,490.21 418.14,483.69 C401.29,475.60 398.72,474.55 388.04,471.42 C366.28,465.05 344.46,462.46 319.50,463.31 C303.71,463.84 285.42,466.28 283.53,468.10 C283.00,468.61 280.70,476.34 278.41,485.27 C276.13,494.19 272.37,508.70 270.06,517.50 C266.08,532.68 245.66,612.77 243.97,619.82 C243.43,622.07 243.55,623.25 244.34,623.49 C244.98,623.68 254.05,624.07 264.50,624.35 C291.14,625.05 318.20,629.14 345.50,636.59 C359.88,640.51 382.95,648.59 393.00,653.22 C404.92,658.72 423.26,668.05 426.05,670.04 C427.57,671.12 429.09,672.00 429.44,672.00 C429.98,672.00 443.85,681.05 452.00,686.73 C455.67,689.28 471.42,701.29 472.00,701.98 C472.27,702.30 475.65,705.19 479.50,708.39 C483.35,711.59 490.77,718.35 496.00,723.40 C501.23,728.46 507.02,733.83 508.88,735.34 ZM 487.55 777.41 L 497.50 786.90 L 512.60 786.95 C526.83,787.00 527.80,786.88 529.60,784.84 C530.64,783.66 536.95,777.91 543.60,772.07 C569.97,748.93 602.49,728.67 636.50,714.21 C650.40,708.30 681.10,697.74 689.25,696.07 C691.59,695.59 697.78,694.24 703.00,693.08 C738.38,685.20 773.60,682.44 805.70,685.04 C823.27,686.46 845.27,689.61 858.83,692.64 C865.06,694.04 870.44,694.90 870.78,694.55 C871.56,693.78 870.09,690.00 860.49,668.00 C850.93,646.09 837.89,614.66 831.03,597.00 C828.15,589.58 825.42,582.60 824.98,581.50 C822.66,575.79 816.00,557.13 816.00,556.35 C816.00,555.03 796.48,545.38 787.94,542.48 C781.20,540.19 776.00,539.32 776.00,540.49 C776.00,540.76 777.32,545.14 778.93,550.24 C780.55,555.33 782.98,563.33 784.34,568.00 C789.20,584.73 798.21,614.60 800.01,620.00 C803.32,629.89 805.18,637.65 804.84,640.10 L 804.50 642.50 L 787.00 642.14 C712.44,640.61 643.26,660.04 585.00,698.87 C561.02,714.85 539.91,733.12 522.24,753.19 L 512.68 764.05 L 496.93 747.71 C478.56,728.65 466.15,717.67 449.50,705.75 C415.75,681.58 375.75,663.27 333.50,652.64 C303.66,645.13 257.03,640.67 231.56,642.89 C224.45,643.52 218.30,643.68 217.90,643.26 C217.50,642.84 219.18,636.20 221.63,628.50 C224.09,620.80 226.72,612.25 227.48,609.50 C228.24,606.75 229.96,600.90 231.31,596.50 C234.14,587.22 247.01,544.34 247.74,541.75 C248.42,539.35 245.21,539.45 237.57,542.10 C228.58,545.20 209.04,554.69 208.55,556.20 C202.85,573.75 179.73,631.58 165.26,664.50 C159.32,678.00 154.00,691.27 154.00,692.56 C154.00,694.64 156.70,694.97 162.21,693.55 C188.95,686.69 231.67,682.87 258.96,684.91 C284.69,686.84 303.09,689.24 318.50,692.69 C373.43,704.98 412.57,721.81 456.41,752.00 C465.44,758.21 479.19,769.44 487.55,777.41 Z" fill="rgb(22,22,33)"/>
<path d="M 508.88 735.34 C507.02,733.83 501.23,728.46 496.00,723.40 C490.77,718.35 483.35,711.59 479.50,708.39 C475.65,705.19 472.27,702.30 472.00,701.98 C471.42,701.29 455.67,689.28 452.00,686.73 C443.85,681.05 429.98,672.00 429.44,672.00 C429.09,672.00 427.57,671.12 426.05,670.04 C423.26,668.05 404.92,658.72 393.00,653.22 C382.95,648.59 359.88,640.51 345.50,636.59 C318.20,629.14 291.14,625.05 264.50,624.35 C254.05,624.07 244.98,623.68 244.34,623.49 C243.55,623.25 243.43,622.07 243.97,619.82 C245.66,612.77 266.08,532.68 270.06,517.50 C272.37,508.70 276.13,494.19 278.41,485.27 C280.70,476.34 283.00,468.61 283.53,468.10 C285.42,466.28 303.71,463.84 319.50,463.31 C344.46,462.46 366.28,465.05 388.04,471.42 C398.72,474.55 401.29,475.60 418.14,483.69 C431.74,490.21 431.78,490.25 432.40,494.12 C432.75,496.27 432.92,497.82 433.55,498.04 C434.89,498.49 438.28,492.93 449.64,474.27 L 449.64 474.27 C450.19,473.38 450.75,472.45 451.33,471.50 C457.36,461.60 463.06,452.15 464.00,450.50 C464.94,448.85 467.97,443.67 470.74,439.00 C482.84,418.54 497.61,386.49 496.52,383.06 C495.98,381.37 494.63,381.24 479.72,381.36 C455.64,381.57 443.29,377.88 426.56,365.51 C416.28,357.91 412.30,353.83 405.94,344.40 C395.07,328.30 389.24,310.74 388.33,291.36 C387.74,278.83 387.80,278.20 389.71,277.59 C390.81,277.24 401.11,277.15 412.60,277.39 C431.24,277.78 434.37,278.09 441.52,280.29 C468.68,288.65 488.82,303.80 498.65,323.29 C502.21,330.34 507.00,346.90 507.00,352.13 C507.00,353.57 507.69,355.33 508.54,356.04 C511.81,358.75 512.48,355.66 513.04,335.20 C513.33,324.36 513.91,314.96 514.32,314.30 C514.72,313.64 515.91,309.77 516.95,305.71 C524.00,278.14 546.21,255.12 577.83,242.62 C592.75,236.72 606.46,234.52 628.13,234.54 C642.96,234.56 647.13,234.86 648.52,236.02 C650.09,237.32 650.21,238.75 649.60,249.49 C648.49,269.07 647.36,275.65 642.43,291.00 C640.24,297.83 637.45,303.95 634.44,308.50 C631.90,312.35 629.18,316.74 628.38,318.27 C626.27,322.30 608.02,340.08 604.46,341.57 C602.79,342.28 599.09,344.42 596.23,346.35 C589.76,350.70 582.38,353.49 569.50,356.47 C555.65,359.67 548.58,360.25 538.58,359.01 C532.32,358.23 529.41,358.24 527.90,359.06 C524.88,360.67 521.68,368.47 522.41,372.40 C524.27,382.29 540.81,418.67 552.13,437.74 C565.61,460.48 583.62,489.60 585.61,491.92 L 587.83 494.50 L 590.23 492.25 C594.74,488.02 618.12,477.21 632.59,472.67 C641.99,469.72 655.73,466.48 665.00,465.01 C682.06,462.32 715.70,462.85 733.77,466.10 C741.08,467.41 741.50,467.93 744.02,478.96 C745.60,485.89 749.97,502.76 762.54,550.50 C765.14,560.40 767.64,570.30 768.08,572.50 C768.53,574.70 771.58,586.99 774.86,599.81 C778.95,615.79 780.46,623.24 779.67,623.48 C779.02,623.68 769.72,624.08 759.00,624.37 C717.77,625.50 682.40,633.13 637.00,650.69 C622.92,656.13 594.25,671.49 579.50,681.49 C572.13,686.48 552.91,700.88 552.00,702.09 C551.72,702.45 548.35,705.32 544.50,708.45 C540.65,711.59 532.78,718.73 527.00,724.33 C525.85,725.45 524.79,726.48 523.81,727.43 C515.55,735.46 513.32,737.63 511.62,737.27 C510.79,737.10 510.09,736.33 508.88,735.34 ZM 506.76 728.05 C509.37,732.38 511.83,735.95 512.22,735.96 C512.62,735.98 513.70,734.54 514.62,732.75 C519.35,723.54 533.27,704.90 544.94,692.14 C556.31,679.69 571.44,666.92 587.97,655.79 C601.17,646.90 627.45,633.13 638.83,629.14 C641.95,628.05 648.55,625.74 653.50,624.01 C678.53,615.28 710.64,609.54 746.25,607.44 C752.16,607.09 757.00,606.51 757.00,606.15 C757.00,605.78 756.55,603.91 755.99,601.99 C755.43,600.07 753.37,591.30 751.41,582.50 C746.01,558.21 736.46,516.55 731.91,497.33 L 727.84 480.16 L 720.17 479.33 C715.95,478.87 703.50,478.54 692.50,478.60 C663.75,478.73 647.14,481.83 617.79,492.51 C603.84,497.59 593.00,502.68 593.00,504.15 C593.00,504.51 595.01,509.50 597.46,515.24 C605.44,533.92 606.49,539.02 606.46,559.00 C606.44,576.10 606.36,576.73 603.12,586.50 C592.84,617.55 570.83,638.99 539.28,648.69 C531.14,651.19 529.18,651.39 512.50,651.42 C495.63,651.44 493.93,651.27 485.50,648.68 C447.64,637.04 421.75,606.70 416.98,568.38 C414.85,551.17 419.58,528.88 429.64,508.78 L 432.01 504.05 L 429.75 502.58 C420.49,496.51 391.32,486.23 373.00,482.59 C353.50,478.70 340.59,477.65 322.00,478.43 C312.92,478.81 303.48,479.43 301.00,479.81 L 296.50 480.50 L 294.28 489.50 C293.06,494.45 288.85,512.45 284.91,529.50 C280.98,546.55 275.39,570.62 272.50,583.00 C269.60,595.38 267.52,605.82 267.87,606.20 C268.22,606.59 273.45,607.18 279.50,607.52 C332.25,610.48 372.87,620.79 412.00,641.17 C452.57,662.30 485.21,692.22 506.76,728.05 ZM 503.68 633.95 C530.17,637.07 560.17,623.87 574.83,602.65 C584.38,588.83 588.96,574.50 588.98,558.32 C589.02,536.94 583.43,521.86 563.48,489.50 C541.59,453.97 526.62,426.41 517.50,404.77 C515.13,399.16 512.72,394.41 512.15,394.22 C511.58,394.03 510.62,395.70 510.02,397.94 C509.42,400.17 508.57,402.00 508.15,402.00 C507.72,402.00 506.31,404.59 505.02,407.75 C498.95,422.64 479.63,458.68 468.43,476.00 C466.12,479.58 461.61,487.00 458.41,492.50 C439.69,524.67 434.59,538.82 434.57,558.50 C434.57,569.22 436.32,580.00 438.07,580.00 C438.55,580.00 438.70,580.63 438.40,581.40 C438.11,582.17 438.35,583.10 438.95,583.47 C439.54,583.84 439.77,584.56 439.46,585.07 C439.14,585.58 439.39,586.00 440.00,586.00 C440.61,586.00 440.84,586.45 440.50,587.00 C440.16,587.55 440.38,588.00 440.98,588.00 C441.59,588.00 441.96,588.59 441.79,589.32 C441.63,590.04 443.28,593.53 445.46,597.07 C457.72,617.01 480.09,631.18 503.68,633.95 ZM 540.45 341.39 L 538.59 344.28 L 551.54 343.79 C562.60,343.37 565.85,342.84 573.70,340.18 C605.42,329.46 625.95,305.58 632.94,271.30 C634.07,265.74 635.00,258.33 635.00,254.84 L 635.00 248.50 L 620.75 249.14 C591.02,250.47 568.92,259.38 550.59,277.45 C536.20,291.62 527.28,311.88 528.18,328.27 L 528.50 334.04 L 535.50 325.85 C543.51,316.47 556.76,305.08 568.75,297.25 C577.02,291.86 594.60,283.00 597.02,283.00 C597.73,283.00 594.98,285.33 590.91,288.17 C577.34,297.63 550.29,326.16 540.45,341.39 ZM 465.40 367.00 C474.37,368.32 485.22,368.17 484.36,366.75 C482.67,363.94 449.89,329.16 446.52,326.58 C440.74,322.17 443.21,322.37 452.21,327.03 C466.00,334.18 477.08,341.45 485.48,348.85 C489.86,352.72 493.59,355.74 493.77,355.57 C493.94,355.39 493.40,351.99 492.57,348.01 C488.24,327.24 472.52,308.46 451.47,298.92 C440.29,293.85 422.26,290.06 409.11,290.02 L 402.71 290.00 L 403.27 297.75 C404.23,311.15 412.25,330.49 421.31,341.26 C432.50,354.57 449.91,364.73 465.40,367.00 ZM 461.00 569.71 C461.00,574.76 457.04,574.91 454.48,569.96 C452.79,566.69 452.51,560.42 454.01,559.49 C457.21,557.51 461.00,563.05 461.00,569.71 ZM 803.27 630.76 C805.11,636.69 806.42,640.84 806.79,641.84 C807.20,642.95 803.99,643.06 788.39,642.48 C776.23,642.02 764.11,642.19 752.08,642.98 C763.57,642.18 775.22,641.90 787.00,642.14 L 804.50 642.50 L 804.84 640.10 C805.05,638.64 804.47,635.31 803.27,630.76 ZM 671.29 657.91 C640.65,667.42 611.55,681.17 585.00,698.87 C611.65,681.10 640.59,667.40 671.29,657.91 ZM 786.22 574.40 C789.56,585.70 794.58,602.37 798.85,616.34 C796.17,607.77 790.42,588.70 786.22,574.40 Z" fill="rgb(92,47,10)"/>
<path d="M 540.45 341.39 C544.47,335.17 551.35,326.74 559.02,318.29 C557.33,320.39 557.93,320.61 559.41,320.80 C563.43,321.30 574.36,317.44 581.19,313.11 C584.32,311.12 592.01,304.46 598.28,298.31 C604.62,292.07 610.85,286.83 612.34,286.45 C613.81,286.08 616.70,286.13 618.76,286.56 C625.31,287.93 627.88,287.85 627.29,286.31 C626.97,285.48 627.31,285.04 628.12,285.21 C628.77,285.35 629.62,283.73 630.50,281.08 C621.82,310.14 602.31,330.51 573.70,340.18 C565.85,342.84 562.60,343.37 551.54,343.79 L 538.59 344.28 ZM 465.40 367.00 C449.91,364.73 432.50,354.57 421.31,341.26 C412.25,330.49 404.23,311.15 403.27,297.75 L 402.71 290.00 L 403.00 290.00 L 403.00 293.36 C403.00,295.84 403.89,297.61 406.36,300.11 C411.05,304.84 421.16,311.83 429.47,316.11 C434.42,318.65 436.50,320.29 436.50,321.61 C436.50,322.86 435.90,323.40 434.75,323.21 C431.47,322.66 432.92,326.29 437.87,331.06 C442.94,335.94 452.93,340.62 455.88,339.49 C456.74,339.16 457.12,339.21 456.73,339.60 C456.35,339.99 457.22,340.92 458.66,341.67 C460.11,342.42 461.51,342.82 461.78,342.55 C461.88,342.45 461.78,342.19 461.53,341.78 C471.70,352.48 483.37,365.10 484.36,366.75 C485.22,368.17 474.37,368.32 465.40,367.00 ZM 529.15 333.28 C529.78,332.52 530.73,331.22 531.72,329.75 C536.06,323.31 536.45,322.61 535.24,323.35 C534.65,323.71 535.37,321.56 536.84,318.57 C539.13,313.87 542.31,310.85 545.25,310.57 C545.66,310.53 547.55,309.26 549.45,307.75 C554.29,303.89 554.86,304.33 550.43,308.50 C545.58,313.08 546.94,313.00 552.58,308.38 C556.59,305.09 558.79,301.81 555.75,303.63 C554.91,304.14 554.96,303.82 555.88,302.68 C556.64,301.74 557.77,301.09 558.38,301.22 C560.07,301.60 565.87,299.00 571.95,295.14 C575.14,293.12 581.14,289.98 586.49,287.40 C580.44,290.40 573.23,294.33 568.75,297.25 C556.76,305.08 543.51,316.47 535.50,325.85 ZM 489.79 351.72 C493.14,354.46 493.86,354.61 491.58,352.09 C490.22,350.58 490.00,349.21 490.53,345.63 C490.88,343.34 490.90,341.87 490.17,339.62 C491.17,342.37 491.98,345.17 492.57,348.01 C493.40,351.99 493.94,355.39 493.77,355.57 C493.59,355.74 489.86,352.72 485.48,348.85 C479.98,344.01 473.35,339.23 465.56,334.50 C467.75,335.76 469.57,336.84 470.72,337.57 C475.97,340.91 482.53,345.78 489.79,351.72 ZM 450.50 330.38 C448.01,328.14 445.71,326.26 444.33,325.46 C440.66,323.30 438.69,321.00 440.51,321.00 C440.94,321.00 446.07,323.69 452.08,326.96 C443.19,322.37 440.76,322.19 446.52,326.58 C447.09,327.02 448.52,328.39 450.50,330.38 ZM 408.13 315.61 C409.05,317.85 409.41,318.11 409.73,316.75 C409.96,315.79 410.68,314.99 411.32,314.98 C412.03,314.98 411.92,314.60 411.05,314.05 C410.25,313.55 409.24,313.35 408.80,313.62 C408.36,313.90 408.00,313.57 408.00,312.89 C408.00,312.22 407.76,311.90 407.47,312.19 C407.18,312.49 407.48,314.02 408.13,315.61 ZM 597.02 283.00 C597.73,283.00 594.98,285.33 590.91,288.17 C586.83,291.02 577.42,299.44 570.00,306.89 C567.25,309.65 565.06,311.86 563.34,313.61 C573.31,303.02 583.90,293.05 590.91,288.17 C594.98,285.33 597.73,283.00 597.02,283.00 ZM 586.47 255.14 C582.21,256.64 578.01,258.47 573.69,260.65 C566.70,264.19 559.33,269.42 553.00,275.15 C562.87,266.02 573.83,259.42 586.47,255.14 ZM 534.27 300.65 C531.00,308.05 528.85,315.89 528.21,323.03 C528.68,315.83 530.81,308.12 534.27,300.65 ZM 632.72 272.37 C633.66,267.73 634.42,262.52 634.69,258.00 L 635.00 252.87 L 635.00 254.84 C635.00,258.33 634.07,265.74 632.94,271.30 C632.87,271.66 632.79,272.01 632.72,272.37 ZM 635.00 248.51 L 620.88 249.14 C619.67,249.19 618.48,249.25 617.32,249.33 C618.45,249.25 619.60,249.19 620.75,249.14 L 635.00 248.50 ZM 488.97 336.57 C488.46,335.44 487.84,334.11 487.07,332.52 C486.97,332.32 486.87,332.12 486.77,331.91 C487.56,333.44 488.30,335.00 488.97,336.57 ZM 528.50 333.97 C528.58,333.92 528.70,333.80 528.86,333.62 L 528.50 334.04 Z" fill="rgb(153,188,34)"/>
<path d="M 529.15 333.28 L 528.86 333.62 C528.70,333.80 528.58,333.92 528.50,333.97 L 528.18 328.27 C528.09,326.56 528.10,324.81 528.21,323.03 C528.85,315.89 531.00,308.05 534.27,300.65 C538.17,292.26 543.77,284.17 550.59,277.45 C551.38,276.67 552.19,275.90 553.00,275.15 C559.33,269.42 566.70,264.19 573.69,260.65 C578.01,258.47 582.21,256.64 586.47,255.14 C595.77,251.98 605.98,250.07 617.32,249.33 C618.48,249.25 619.67,249.19 620.88,249.14 L 635.00 248.51 L 635.00 252.87 L 634.69 258.00 C634.42,262.52 633.66,267.72 632.72,272.37 L 632.72 272.37 C632.08,275.36 631.34,278.26 630.49,281.08 C629.62,283.73 628.77,285.35 628.12,285.21 C627.31,285.04 626.97,285.48 627.29,286.31 C627.88,287.85 625.31,287.93 618.76,286.56 C616.70,286.13 613.81,286.08 612.34,286.45 C610.85,286.83 604.62,292.07 598.28,298.31 C592.01,304.46 584.32,311.12 581.19,313.11 C574.36,317.44 563.43,321.30 559.41,320.80 C557.93,320.61 557.33,320.39 559.02,318.29 C560.44,316.73 561.88,315.16 563.34,313.61 C565.06,311.86 567.25,309.65 570.00,306.89 C577.42,299.44 586.83,291.02 590.91,288.17 C594.55,285.63 597.13,283.50 597.13,283.08 C597.13,283.03 597.10,283.00 597.02,283.00 C595.91,283.00 591.61,284.86 586.49,287.40 C581.14,289.98 575.14,293.12 571.95,295.14 C565.87,299.00 560.07,301.60 558.38,301.22 C557.77,301.09 556.64,301.74 555.88,302.68 C554.96,303.82 554.91,304.14 555.75,303.63 C558.79,301.81 556.59,305.09 552.58,308.38 C546.94,313.00 545.58,313.08 550.43,308.50 C554.86,304.33 554.29,303.89 549.45,307.75 C547.55,309.26 545.66,310.53 545.25,310.57 C542.31,310.85 539.13,313.87 536.84,318.57 C535.37,321.56 534.65,323.71 535.24,323.35 C536.45,322.61 536.06,323.31 531.72,329.75 C530.73,331.22 529.78,332.52 529.15,333.28 ZM 489.79 351.72 C482.53,345.78 475.97,340.91 470.72,337.57 C469.57,336.84 467.75,335.76 465.56,334.50 C461.44,332.00 456.99,329.51 452.21,327.03 L 452.08 326.96 C446.07,323.69 440.94,321.00 440.51,321.00 C438.69,321.00 440.66,323.30 444.33,325.46 C445.71,326.26 448.01,328.14 450.50,330.38 C453.33,333.23 457.30,337.34 461.53,341.78 C461.78,342.19 461.88,342.45 461.78,342.55 C461.51,342.82 460.11,342.42 458.66,341.67 C457.22,340.92 456.35,339.99 456.73,339.60 C457.12,339.21 456.74,339.16 455.88,339.49 C452.93,340.62 442.94,335.94 437.87,331.06 C432.92,326.29 431.47,322.66 434.75,323.21 C435.90,323.40 436.50,322.86 436.50,321.61 C436.50,320.29 434.42,318.65 429.47,316.11 C421.16,311.83 411.05,304.84 406.36,300.11 C403.89,297.61 403.00,295.84 403.00,293.36 L 403.00 290.00 L 409.11 290.02 C422.26,290.06 440.29,293.85 451.47,298.92 C466.89,305.91 479.45,317.85 486.77,331.91 C486.87,332.12 486.97,332.32 487.07,332.52 C487.84,334.11 488.46,335.44 488.97,336.57 C489.40,337.58 489.80,338.60 490.17,339.62 C490.90,341.87 490.88,343.34 490.53,345.63 C490.00,349.21 490.22,350.58 491.58,352.09 C493.86,354.61 493.14,354.46 489.79,351.72 ZM 408.13 315.61 C407.48,314.02 407.18,312.49 407.47,312.19 C407.76,311.90 408.00,312.22 408.00,312.89 C408.00,313.57 408.36,313.90 408.80,313.62 C409.24,313.35 410.25,313.55 411.05,314.05 C411.92,314.60 412.03,314.98 411.32,314.98 C410.68,314.99 409.96,315.79 409.73,316.75 C409.41,318.11 409.05,317.85 408.13,315.61 Z" fill="rgb(170,202,37)"/>
<path d="M 487.55 777.41 C479.19,769.44 465.44,758.21 456.41,752.00 C412.57,721.81 373.43,704.98 318.50,692.69 C303.09,689.24 284.69,686.84 258.96,684.91 C231.67,682.87 188.95,686.69 162.21,693.55 C156.70,694.97 154.00,694.64 154.00,692.56 C154.00,691.27 159.32,678.00 165.26,664.50 C179.73,631.58 202.85,573.75 208.55,556.20 C209.04,554.69 228.58,545.20 237.57,542.10 C239.88,541.30 241.79,540.73 243.30,540.39 C243.44,540.61 243.87,540.95 244.56,541.47 C245.97,542.53 246.88,543.00 247.41,542.87 C245.25,550.21 233.94,587.87 231.31,596.50 C229.96,600.90 228.24,606.75 227.48,609.50 C226.72,612.25 224.09,620.80 221.63,628.50 C219.18,636.20 217.50,642.84 217.90,643.26 C218.30,643.68 224.45,643.52 231.56,642.89 C257.03,640.67 303.66,645.13 333.50,652.64 C375.75,663.27 415.75,681.58 449.50,705.75 C466.15,717.67 478.56,728.65 496.93,747.71 L 512.68 764.05 L 522.24 753.19 C539.91,733.12 561.02,714.85 585.00,698.87 C611.65,681.10 640.59,667.40 671.29,657.91 C697.08,649.93 724.12,644.92 752.08,642.98 C764.11,642.19 776.23,642.02 788.39,642.48 C803.99,643.06 807.20,642.95 806.79,641.84 C806.42,640.84 805.11,636.69 803.27,630.76 C802.46,627.66 801.35,624.01 800.01,620.00 C799.76,619.24 799.36,617.98 798.85,616.34 C794.58,602.37 789.56,585.70 786.22,574.40 C785.55,572.13 784.91,569.97 784.34,568.00 C782.98,563.33 780.55,555.33 778.93,550.24 C777.32,545.14 776.00,540.76 776.00,540.49 C776.00,539.32 781.20,540.19 787.94,542.48 C796.48,545.38 816.00,555.03 816.00,556.35 C816.00,557.13 822.66,575.79 824.98,581.50 C825.42,582.60 828.15,589.58 831.03,597.00 C837.89,614.66 850.93,646.09 860.49,668.00 C870.09,690.00 871.56,693.78 870.78,694.55 C870.44,694.90 865.06,694.04 858.83,692.64 C845.27,689.61 823.27,686.46 805.70,685.04 C773.60,682.44 738.38,685.20 703.00,693.08 C697.78,694.24 691.59,695.59 689.25,696.07 C681.10,697.74 650.40,708.30 636.50,714.21 C602.49,728.67 569.97,748.93 543.60,772.07 C536.95,777.91 530.64,783.66 529.60,784.84 C527.80,786.88 526.83,787.00 512.60,786.95 L 497.50 786.90 ZM 444.66 595.73 C442.89,592.69 441.65,589.95 441.79,589.32 C441.96,588.59 441.59,588.00 440.98,588.00 C440.38,588.00 440.16,587.55 440.50,587.00 C440.84,586.45 440.61,586.00 440.00,586.00 C439.39,586.00 439.14,585.58 439.46,585.07 C439.77,584.56 439.54,583.84 438.95,583.47 C438.35,583.10 438.11,582.17 438.40,581.40 C438.70,580.63 438.55,580.00 438.07,580.00 C436.32,580.00 434.57,569.22 434.57,558.50 C434.59,538.82 439.69,524.67 458.41,492.50 C461.61,487.00 466.12,479.58 468.43,476.00 C479.63,458.68 498.95,422.64 505.02,407.75 C506.31,404.59 507.72,402.00 508.15,402.00 C508.48,402.00 509.08,400.85 509.62,399.26 C509.57,399.48 509.53,399.70 509.48,399.93 C509.12,401.89 508.34,403.79 507.76,404.15 C507.19,404.50 506.52,408.33 506.28,412.65 C505.69,423.37 501.76,435.01 489.90,461.25 C473.19,498.20 470.41,508.74 471.25,532.00 C471.68,544.06 472.08,546.40 474.91,553.93 C484.18,578.55 506.67,594.00 533.24,594.00 C546.97,594.00 561.72,588.38 570.17,579.93 C574.23,575.86 580.71,567.00 583.27,562.00 C584.92,558.77 583.02,570.94 580.92,577.04 C574.10,596.80 560.56,611.92 541.58,620.96 C526.28,628.24 511.30,630.41 495.39,627.64 C490.38,626.76 484.17,625.14 481.58,624.04 C467.50,618.00 453.83,607.29 447.39,597.25 C443.98,591.93 442.54,590.56 443.70,593.75 C443.90,594.29 444.23,594.97 444.66,595.73 ZM 461.00 569.71 C461.00,563.05 457.21,557.51 454.01,559.49 C452.51,560.42 452.79,566.69 454.48,569.96 C457.04,574.91 461.00,574.76 461.00,569.71 ZM 472.20 623.10 C466.30,619.58 460.85,615.34 456.06,610.50 C456.26,610.70 456.46,610.90 456.66,611.08 C461.68,615.83 466.84,619.83 472.20,623.10 ZM 517.50 404.77 C519.88,410.42 522.66,416.48 525.86,422.97 C522.22,415.64 519.22,409.09 516.96,403.50 C517.14,403.92 517.32,404.34 517.50,404.77 ZM 454.76 609.16 C451.51,605.72 448.60,602.01 446.08,598.06 C448.36,601.56 451.77,605.96 454.76,609.16 ZM 247.76 540.77 C247.44,540.36 246.82,540.11 245.94,540.03 C246.96,540.02 247.56,540.26 247.76,540.77 Z" fill="rgb(233,116,6)"/>
<path d="M 506.76 728.05 C485.21,692.22 452.57,662.30 412.00,641.17 C372.87,620.79 332.25,610.48 279.50,607.52 C273.45,607.18 268.22,606.59 267.87,606.20 C267.52,605.82 269.60,595.38 272.50,583.00 C275.39,570.62 280.98,546.55 284.91,529.50 C288.85,512.45 293.06,494.45 294.28,489.50 L 296.50 480.50 L 301.00 479.81 C303.48,479.43 312.92,478.81 322.00,478.43 C340.59,477.65 353.50,478.70 373.00,482.59 C382.23,484.42 394.21,487.94 405.01,491.76 C402.60,491.10 401.34,491.19 399.76,491.78 C397.46,492.65 394.47,492.39 385.19,490.49 C378.76,489.18 369.13,487.63 363.79,487.05 C346.91,485.22 316.72,486.05 308.82,488.56 C306.58,489.27 305.05,494.51 299.96,519.00 C297.74,529.72 293.72,548.62 291.03,561.00 C288.34,573.38 286.00,584.98 285.83,586.79 C285.44,590.85 286.98,591.96 293.00,591.99 C303.92,592.05 335.34,598.06 354.00,603.67 C373.98,609.68 402.22,622.25 420.00,633.04 C428.33,638.09 447.57,652.46 455.96,659.89 C476.93,678.48 501.24,707.90 509.96,725.25 C510.72,726.76 511.68,728.00 512.10,728.00 C512.51,728.00 514.23,725.59 515.92,722.64 C522.40,711.31 539.91,688.77 552.17,675.98 C589.38,637.13 638.58,609.97 693.45,597.98 C709.51,594.46 725.17,592.00 731.41,592.00 C736.85,592.00 739.00,591.24 739.00,589.31 C739.00,587.84 731.88,553.52 725.46,524.00 C723.60,515.47 721.32,504.45 720.39,499.50 C719.46,494.55 718.34,490.10 717.91,489.61 C716.21,487.69 701.70,486.10 685.46,486.05 C668.29,486.00 650.15,487.71 640.00,490.33 C632.38,492.30 626.11,492.98 625.44,491.90 C624.72,490.75 623.05,490.75 618.12,492.39 C647.27,481.80 663.86,478.73 692.50,478.60 C703.50,478.54 715.95,478.87 720.17,479.33 L 727.84 480.16 L 731.91 497.33 C736.46,516.55 746.01,558.21 751.41,582.50 C753.37,591.30 755.43,600.07 755.99,601.99 C756.55,603.91 757.00,605.78 757.00,606.15 C757.00,606.51 752.16,607.09 746.25,607.44 C710.64,609.54 678.53,615.28 653.50,624.01 C648.55,625.74 641.95,628.05 638.83,629.14 C627.45,633.13 601.17,646.90 587.97,655.79 C571.44,666.92 556.31,679.69 544.94,692.14 C533.27,704.90 519.35,723.54 514.62,732.75 C513.70,734.54 512.62,735.98 512.22,735.96 C511.83,735.95 509.37,732.38 506.76,728.05 ZM 444.66 595.73 C444.23,594.97 443.90,594.29 443.70,593.75 C442.54,590.56 443.98,591.93 447.39,597.25 C451.99,604.42 460.29,611.94 469.79,617.86 C465.72,615.47 462.12,613.12 460.97,611.97 C458.63,609.63 455.00,607.68 455.00,608.77 C455.00,609.12 455.83,610.19 457.01,611.41 C456.89,611.30 456.77,611.19 456.66,611.08 C456.46,610.90 456.26,610.70 456.06,610.50 L 456.06 610.50 C455.62,610.06 455.19,609.61 454.76,609.16 L 454.76 609.15 C451.77,605.95 448.36,601.56 446.08,598.06 C445.87,597.73 445.66,597.40 445.46,597.07 C445.18,596.62 444.91,596.17 444.66,595.73 ZM 502.29 431.21 C504.85,423.64 505.98,418.03 506.28,412.65 C506.52,408.33 507.19,404.50 507.76,404.15 C508.34,403.79 509.12,401.89 509.48,399.93 C509.53,399.70 509.57,399.48 509.62,399.26 C509.76,398.85 509.89,398.40 510.02,397.94 C510.22,397.19 510.46,396.51 510.71,395.94 C509.83,398.24 508.93,402.74 508.15,409.00 C507.43,414.82 505.50,422.14 502.29,431.21 ZM 247.76 540.77 C247.86,541.03 247.85,541.35 247.74,541.75 C247.69,541.93 247.58,542.31 247.41,542.87 C246.88,543.00 245.97,542.53 244.56,541.47 C243.87,540.95 243.44,540.61 243.30,540.39 C244.38,540.15 245.25,540.03 245.94,540.03 C246.82,540.11 247.44,540.36 247.76,540.77 ZM 430.67 503.18 L 432.01 504.05 L 429.64 508.78 C429.63,508.80 429.62,508.82 429.61,508.85 C425.34,517.38 422.04,526.30 419.81,535.06 C416.80,546.92 415.76,558.49 416.98,568.38 C415.76,558.49 416.80,546.92 419.81,535.06 C422.04,526.29 425.35,517.36 429.61,508.85 L 429.64 508.78 C431.40,505.26 431.65,503.96 430.72,503.21 C430.70,503.20 430.69,503.19 430.67,503.18 ZM 417.12 496.37 C422.22,498.49 426.49,500.53 429.25,502.26 C426.73,500.78 421.96,498.48 417.12,496.37 ZM 489.92 461.25 C483.72,474.93 479.44,484.99 476.54,493.42 C479.43,485.00 483.71,474.93 489.90,461.25 C491.41,457.91 492.79,454.81 494.05,451.92 C492.76,454.90 491.38,458.01 489.92,461.25 ZM 598.30 500.58 C595.09,502.23 593.00,503.58 593.00,504.15 C593.00,503.52 594.97,502.24 598.30,500.58 Z" fill="rgb(247,148,37)"/>
<path d="M 430.67 503.18 C430.69,503.19 430.70,503.20 430.72,503.21 C431.65,503.96 431.40,505.26 429.64,508.78 L 429.61 508.85 C425.35,517.36 422.04,526.29 419.81,535.06 C416.80,546.92 415.76,558.49 416.98,568.38 C421.75,606.70 447.64,637.04 485.50,648.68 C493.93,651.27 495.63,651.44 512.50,651.42 C529.18,651.39 531.14,651.19 539.28,648.69 C570.83,638.99 592.84,617.55 603.12,586.50 C606.36,576.73 606.44,576.10 606.46,559.00 C606.49,539.02 605.44,533.92 597.46,515.24 C595.01,509.50 593.00,504.51 593.00,504.15 C593.00,503.52 594.97,502.24 598.30,500.58 C602.80,498.35 609.78,495.43 617.79,492.51 L 618.12 492.39 C623.05,490.75 624.72,490.75 625.44,491.90 C626.11,492.98 632.38,492.30 640.00,490.33 C643.56,489.41 648.10,488.60 653.23,487.95 C642.47,489.74 628.09,493.05 627.46,494.06 C627.19,494.51 627.88,498.17 629.00,502.19 C635.82,526.63 635.66,555.35 628.57,575.59 C622.08,594.11 618.45,601.28 609.61,612.95 C590.24,638.51 564.11,655.44 534.50,661.62 C521.00,664.44 498.38,664.22 487.00,661.17 C461.33,654.28 441.16,642.58 424.87,625.16 C418.37,618.21 410.00,607.78 410.00,606.63 C410.00,606.37 407.92,602.64 405.37,598.33 C389.78,571.99 385.75,536.81 394.60,504.50 C394.81,503.71 395.02,502.98 395.20,502.31 C396.42,497.93 396.96,495.99 396.24,494.85 C395.56,493.76 393.75,493.38 390.32,492.31 C386.61,491.16 383.46,490.28 380.32,489.56 C382.05,489.87 383.70,490.19 385.19,490.49 C394.47,492.39 397.46,492.65 399.76,491.78 C401.34,491.19 402.60,491.10 405.01,491.76 C409.32,493.28 413.43,494.85 417.12,496.37 C421.96,498.48 426.73,500.78 429.25,502.26 C429.43,502.36 429.59,502.47 429.75,502.58 ZM 505.97 718.19 C508.81,722.53 511.67,726.00 512.42,726.00 C513.19,726.00 515.27,723.64 517.04,720.75 C516.64,721.41 516.26,722.04 515.92,722.64 C514.23,725.59 512.51,728.00 512.10,728.00 C511.68,728.00 510.72,726.76 509.96,725.25 C508.86,723.07 507.52,720.70 505.97,718.19 ZM 490.84 697.08 C480.36,683.96 467.64,670.25 455.96,659.89 C468.07,670.63 480.21,683.62 490.84,697.08 ZM 685.15 486.05 L 685.46 486.05 C700.56,486.10 714.16,487.48 717.36,489.21 C714.07,487.44 699.86,486.23 685.15,486.05 ZM 335.45 486.12 C323.79,486.35 313.07,487.21 308.82,488.56 C313.08,487.20 323.81,486.34 335.45,486.12 Z" fill="rgb(252,199,108)"/>
<path d="M 503.68 633.95 C492.61,632.65 481.81,628.84 472.20,623.10 L 472.20 623.10 C466.97,619.90 461.92,616.02 457.01,611.41 C455.83,610.19 455.00,609.12 455.00,608.77 C455.00,607.68 458.63,609.63 460.97,611.97 C462.12,613.12 465.72,615.47 469.79,617.86 C473.59,620.21 477.57,622.31 481.58,624.04 C484.17,625.14 490.38,626.76 495.39,627.64 C511.30,630.41 526.28,628.24 541.58,620.96 C560.56,611.92 574.10,596.80 580.92,577.04 C583.02,570.94 584.92,558.77 583.27,562.00 C580.71,567.00 574.23,575.86 570.17,579.93 C561.72,588.38 546.97,594.00 533.24,594.00 C506.67,594.00 484.18,578.55 474.91,553.93 C472.08,546.40 471.68,544.06 471.25,532.00 C470.72,517.36 471.63,507.75 476.54,493.42 C479.44,484.99 483.72,474.93 489.92,461.25 C491.38,458.01 492.76,454.90 494.05,451.92 C497.73,443.48 500.40,436.81 502.29,431.21 C505.50,422.14 507.43,414.82 508.15,409.00 C508.93,402.74 509.83,398.24 510.71,395.94 C511.21,394.79 511.77,394.09 512.15,394.22 C512.68,394.39 514.77,398.44 516.95,403.48 L 516.96 403.50 C519.22,409.09 522.22,415.64 525.86,422.97 C534.91,441.35 547.30,463.25 563.48,489.50 C583.43,521.86 589.02,536.94 588.98,558.32 C588.96,574.50 584.38,588.83 574.83,602.65 C560.17,623.87 530.17,637.07 503.68,633.95 ZM 546.67 543.33 C549.87,546.54 559.52,539.03 562.04,531.37 C563.44,527.14 562.76,516.99 560.60,509.94 C558.69,503.66 551.22,489.39 543.91,478.00 C535.98,465.66 528.71,452.12 524.44,441.77 C520.04,431.09 520.05,433.87 524.51,456.60 C528.29,475.89 528.54,476.72 533.98,488.00 C538.23,496.81 543.38,511.30 544.91,518.80 C545.51,521.71 546.00,528.28 546.00,533.38 C546.00,538.49 546.30,542.97 546.67,543.33 Z" fill="rgb(252,195,7)"/>
<path d="M 505.69 717.75 C492.56,697.42 474.23,676.08 455.96,659.89 C447.57,652.46 428.33,638.09 420.00,633.04 C402.22,622.25 373.98,609.68 354.00,603.67 C335.34,598.06 303.92,592.05 293.00,591.99 C286.98,591.96 285.44,590.85 285.83,586.79 C286.00,584.98 288.34,573.38 291.03,561.00 C293.72,548.62 297.74,529.72 299.96,519.00 C305.05,494.51 306.58,489.27 308.82,488.56 C316.68,486.06 346.73,485.23 363.79,487.02 C375.08,488.21 380.88,489.37 390.32,492.31 C397.93,494.69 397.57,493.65 394.60,504.50 C385.75,536.81 389.78,571.99 405.37,598.33 C407.92,602.64 410.00,606.37 410.00,606.63 C410.00,607.78 418.37,618.21 424.87,625.16 C441.16,642.58 461.33,654.28 487.00,661.17 C498.38,664.22 521.00,664.44 534.50,661.62 C564.11,655.44 590.24,638.51 609.61,612.95 C618.45,601.28 622.08,594.11 628.57,575.59 C635.66,555.35 635.82,526.63 629.00,502.19 C627.88,498.17 627.19,494.51 627.46,494.06 C628.22,492.83 649.30,488.21 659.50,487.04 C678.59,484.85 715.12,486.46 717.91,489.61 C718.34,490.10 719.46,494.55 720.39,499.50 C721.32,504.45 723.60,515.47 725.46,524.00 C731.88,553.52 739.00,587.84 739.00,589.31 C739.00,591.24 736.85,592.00 731.41,592.00 C725.17,592.00 709.51,594.46 693.45,597.98 C638.58,609.97 589.38,637.13 552.17,675.98 C540.64,688.01 524.42,708.67 517.04,720.75 C515.27,723.64 513.19,726.00 512.42,726.00 C511.65,726.00 508.62,722.29 505.69,717.75 ZM 546.67 543.33 C546.30,542.97 546.00,538.49 546.00,533.38 C546.00,528.28 545.51,521.71 544.91,518.80 C543.38,511.30 538.23,496.81 533.98,488.00 C528.54,476.72 528.29,475.89 524.51,456.60 C520.05,433.87 520.04,431.09 524.44,441.77 C528.71,452.12 535.98,465.66 543.91,478.00 C551.22,489.39 558.69,503.66 560.60,509.94 C562.76,516.99 563.44,527.14 562.04,531.37 C559.52,539.03 549.87,546.54 546.67,543.33 Z" fill="rgb(253,227,157)"/>
</g>
</svg>