<svg xmlns="http://www.w3.org/2000/svg" width="1024" height="1024" viewBox="0 0 1024 1024">
<g>
<path d="M 527.00 643.56 C497.14,649.00 463.16,636.60 442.92,612.87 C433.51,601.85 426.04,585.84 422.93,570.07 C420.27,556.54 423.15,535.77 430.12,518.17 C433.27,510.24 444.30,489.77 450.79,479.82 C463.96,459.65 478.57,434.85 486.04,420.00 C491.10,409.95 499.00,390.84 499.00,388.67 C499.00,387.96 497.76,386.23 496.25,384.83 C493.55,382.33 493.34,382.30 484.50,383.19 C471.98,384.45 461.64,383.48 451.10,380.03 C435.06,374.79 425.74,368.89 414.46,356.84 C397.88,339.10 387.60,313.89 386.76,288.88 L 386.41 278.26 L 393.86 277.63 C424.03,275.08 449.91,280.64 471.00,294.21 C493.78,308.86 507.49,333.26 507.95,360.00 L 508.06 366.50 L 512.28 358.50 C514.60,354.10 517.21,349.50 518.07,348.28 C519.37,346.45 519.49,344.84 518.77,339.28 C516.20,319.44 523.84,292.79 537.38,274.32 C544.56,264.55 557.44,253.96 569.80,247.69 C589.81,237.53 601.27,234.96 629.75,234.27 L 650.00 233.77 L 650.00 244.29 C650.00,255.24 647.47,272.72 644.17,284.62 C641.55,294.04 634.24,308.49 627.10,318.31 C611.92,339.23 593.87,350.68 566.05,357.05 C563.00,357.75 554.36,358.28 546.45,358.25 L 532.29 358.20 L 528.71 363.64 C523.40,371.71 522.50,375.16 523.96,381.90 C528.30,401.93 548.28,440.55 577.42,485.25 C583.12,493.99 594.91,518.02 597.42,526.00 C601.07,537.64 603.36,553.27 602.64,561.72 C599.10,603.58 569.26,635.86 527.00,643.56 ZM 498.52 627.99 C501.26,628.49 509.12,628.74 516.00,628.55 C526.14,628.27 529.82,627.74 535.50,625.74 C547.42,621.53 555.88,616.25 564.60,607.56 C579.70,592.53 586.30,577.08 586.43,556.50 C586.56,535.52 581.13,521.25 559.98,487.00 C536.65,449.23 517.45,413.37 513.54,400.25 C512.50,396.79 511.66,397.54 509.72,403.64 C505.81,415.93 489.72,446.70 474.50,471.00 C470.19,477.88 465.68,485.08 464.48,487.00 C444.20,519.54 437.70,536.27 437.68,556.00 C437.65,574.00 443.67,589.77 456.01,604.01 C465.47,614.94 484.00,625.39 498.52,627.99 ZM 549.48 335.40 L 543.72 342.29 L 555.11 341.73 C567.43,341.13 574.98,339.08 586.78,333.11 C609.79,321.49 626.47,296.65 632.00,265.75 C633.51,257.31 633.79,253.57 633.05,251.63 C632.12,249.17 631.63,249.00 625.77,249.00 C617.76,249.01 603.36,251.34 594.44,254.08 C584.96,256.98 569.72,264.94 562.51,270.75 C550.21,280.65 539.81,297.34 535.99,313.27 C534.22,320.64 533.34,330.00 534.41,330.00 C534.63,330.00 537.89,326.80 541.66,322.89 C549.70,314.53 564.99,302.83 578.43,294.75 C583.69,291.59 588.24,289.00 588.55,289.00 C588.86,289.00 585.37,293.17 580.80,298.27 C576.24,303.37 568.62,312.26 563.87,318.02 C559.12,323.78 552.64,331.60 549.48,335.40 ZM 464.50 367.49 C472.36,368.94 480.02,369.32 482.48,368.37 C483.76,367.88 482.21,365.76 475.31,358.60 C470.46,353.58 464.53,347.22 462.13,344.48 C459.72,341.74 454.82,336.46 451.24,332.75 C447.65,329.04 444.95,326.00 445.23,326.00 C446.24,326.00 463.67,335.39 470.00,339.35 C473.58,341.59 479.62,346.02 483.44,349.21 C487.25,352.39 490.79,355.00 491.30,355.00 C492.45,355.00 491.55,350.03 488.89,341.81 C486.20,333.47 479.84,322.65 474.12,316.66 C469.61,311.94 461.00,305.29 461.00,306.52 C461.00,306.86 460.21,306.35 459.25,305.39 C456.74,302.88 444.58,297.46 437.12,295.53 C430.47,293.81 427.25,293.40 412.84,292.43 C402.58,291.75 402.33,292.03 403.94,302.15 C409.36,336.01 433.18,361.73 464.50,367.49 ZM 745.70 627.41 C737.89,627.79 725.54,629.13 718.25,630.38 C709.46,631.88 705.00,632.28 705.00,631.57 C705.00,630.97 705.85,629.95 706.88,629.31 C709.55,627.64 720.42,625.82 723.33,626.55 C724.79,626.91 727.09,626.49 728.99,625.50 C731.29,624.31 733.95,623.96 738.35,624.24 C741.73,624.46 746.08,624.28 748.00,623.84 C752.75,622.76 760.99,623.85 760.37,625.48 C760.04,626.33 755.52,626.93 745.70,627.41 ZM 761.63 558.49 C761.95,559.32 761.72,560.00 761.13,560.00 C759.93,560.00 756.00,552.89 756.00,550.73 C756.00,549.98 755.10,547.51 754.00,545.24 C751.39,539.82 749.65,531.55 750.45,528.35 C750.80,526.95 750.66,525.29 750.13,524.65 C749.61,524.02 748.86,521.81 748.48,519.75 C747.94,516.85 748.10,516.00 749.20,516.00 C750.10,516.00 751.19,518.26 752.20,522.25 C757.84,544.55 761.13,557.18 761.63,558.49 ZM 779.15 624.00 C779.42,625.16 778.35,625.56 774.50,625.76 C768.20,626.09 766.45,625.13 768.42,622.44 C769.42,621.08 769.53,620.14 768.79,619.25 C768.06,618.37 768.10,618.00 768.91,618.00 C769.54,618.00 770.32,618.67 770.64,619.50 C770.95,620.33 771.64,621.00 772.17,621.00 C772.69,621.00 772.90,620.65 772.64,620.23 C772.38,619.81 772.06,616.77 771.93,613.48 C771.80,609.97 771.09,606.79 770.23,605.79 C769.21,604.60 768.96,603.00 769.43,600.54 C770.72,593.64 771.80,595.75 776.84,615.00 C777.92,619.12 778.96,623.17 779.15,624.00 ZM 744.58 495.13 C744.85,496.03 744.37,497.03 743.53,497.35 C742.43,497.77 742.00,497.29 742.00,495.62 C742.00,494.35 741.12,492.51 740.04,491.53 C738.96,490.56 737.65,488.35 737.12,486.63 C735.96,482.80 734.99,469.99 735.87,470.02 C737.85,470.06 738.97,472.59 741.41,482.50 C742.89,488.55 744.32,494.23 744.58,495.13 ZM 272.97 533.30 C272.95,535.31 271.80,537.99 269.86,540.50 C268.07,542.83 267.01,543.66 267.31,542.50 C271.92,525.17 274.49,516.83 274.79,518.27 C274.99,519.25 274.67,522.31 274.08,525.07 C273.49,527.84 272.99,531.54 272.97,533.30 ZM 284.03 489.00 C283.63,489.00 282.79,490.01 282.15,491.25 C281.12,493.25 281.06,493.11 281.58,490.00 C281.91,488.08 282.67,484.77 283.27,482.65 C284.25,479.25 284.47,479.04 285.16,480.91 C286.01,483.21 285.20,489.00 284.03,489.00 ZM 506.08 733.15 C507.21,735.38 507.97,737.37 507.76,737.58 C507.55,737.79 505.41,735.95 503.00,733.50 C500.59,731.05 498.93,728.73 499.31,728.35 C499.69,727.98 500.00,728.17 500.00,728.78 C500.00,729.39 500.90,729.71 502.01,729.50 C503.53,729.21 504.52,730.10 506.08,733.15 ZM 256.89 586.50 C256.91,588.15 256.29,590.62 255.50,592.00 C254.25,594.19 254.08,594.25 254.11,592.50 C254.13,591.40 254.76,588.92 255.50,587.00 L 256.85 583.50 ZM 247.51 624.99 C246.63,626.41 244.99,626.25 245.07,624.75 C245.11,624.06 245.49,622.60 245.92,621.50 C246.68,619.56 246.73,619.57 247.42,621.74 C247.81,622.97 247.85,624.44 247.51,624.99 ZM 421.36 667.50 C421.95,669.03 421.46,669.23 419.25,668.34 C417.56,667.66 417.66,666.00 419.39,666.00 C420.16,666.00 421.05,666.67 421.36,667.50 Z" fill="rgb(99,57,6)"/>
<path d="M 284.03 489.00 C285.20,489.00 286.01,483.21 285.16,480.91 C284.54,479.24 284.30,479.23 283.56,481.67 C283.73,481.03 283.89,480.41 284.04,479.80 C286.67,469.57 286.09,469.94 303.34,467.40 C312.14,466.10 318.72,465.88 334.50,466.34 C357.76,467.03 357.09,466.94 375.67,471.53 C397.43,476.89 417.00,484.99 417.00,488.63 C417.00,489.81 412.54,499.63 411.45,500.85 C411.27,501.04 410.65,500.90 410.07,500.54 C409.35,500.10 409.49,498.96 410.50,496.99 C410.56,496.89 410.61,496.79 410.66,496.70 C411.51,495.05 411.96,494.19 411.76,493.52 C411.53,492.77 410.46,492.26 408.21,491.11 C396.50,485.13 366.69,476.84 350.08,474.94 C335.89,473.32 309.72,474.22 300.53,476.66 L 293.57 478.50 L 289.75 492.00 C287.65,499.42 284.39,511.35 282.51,518.50 C280.63,525.65 278.34,534.20 277.43,537.50 C276.52,540.80 273.38,552.72 270.47,564.00 C263.89,589.48 258.51,609.83 257.62,612.63 C256.96,614.72 257.23,614.77 272.72,615.46 C293.81,616.41 307.40,618.17 326.00,622.36 C367.17,631.64 389.18,640.56 430.00,664.51 C446.73,674.34 465.30,689.08 483.59,707.09 C489.69,713.09 495.33,718.00 496.13,718.00 C497.45,718.00 502.08,725.10 506.47,733.84 C507.39,735.68 507.98,737.35 507.77,737.56 C507.77,737.56 507.77,737.56 507.77,737.56 C507.94,737.30 507.19,735.34 506.08,733.15 C504.52,730.10 503.53,729.21 502.01,729.50 C500.90,729.71 500.00,729.39 500.00,728.78 C500.00,728.17 499.69,727.98 499.31,728.35 C499.02,728.65 499.98,730.15 501.57,731.96 C500.02,730.45 498.28,728.73 496.45,726.88 C477.89,708.14 466.04,698.44 437.79,678.88 C436.30,677.84 434.76,677.00 434.36,677.00 C433.97,677.00 431.36,675.49 428.57,673.65 C426.40,672.21 423.63,670.55 420.50,668.77 C421.63,669.07 421.82,668.69 421.36,667.50 C421.05,666.67 420.16,666.00 419.39,666.00 C418.21,666.00 417.79,666.77 418.18,667.48 C405.65,660.55 388.76,652.47 381.00,649.96 C379.62,649.51 375.35,647.94 371.50,646.46 C367.65,644.98 363.83,643.66 363.00,643.52 C362.17,643.39 360.60,642.95 359.50,642.55 C354.14,640.58 351.67,639.85 341.00,637.06 C334.67,635.41 325.67,633.40 321.00,632.59 C316.33,631.79 310.48,630.67 308.00,630.12 C296.46,627.53 280.23,626.13 260.54,626.01 C254.63,625.98 249.40,625.85 246.84,625.70 C247.08,625.54 247.31,625.30 247.51,624.99 C247.85,624.44 247.81,622.97 247.42,621.74 C246.73,619.57 246.68,619.56 245.92,621.50 C245.86,621.67 245.79,621.85 245.73,622.04 C245.90,621.34 246.10,620.59 246.33,619.81 C249.55,608.80 251.06,603.58 254.15,592.00 C254.13,592.19 254.11,592.36 254.11,592.50 C254.08,594.25 254.25,594.19 255.50,592.00 C256.29,590.62 256.91,588.15 256.89,586.50 L 256.85 583.50 L 255.50 587.00 C255.48,587.06 255.45,587.12 255.43,587.18 C257.18,580.58 259.41,572.07 262.52,560.20 C265.93,547.21 278.71,499.55 280.41,493.50 C280.84,491.94 281.56,489.29 282.32,486.41 C282.01,487.74 281.74,489.04 281.58,490.00 C281.06,493.11 281.12,493.25 282.15,491.25 C282.79,490.01 283.63,489.00 284.03,489.00 ZM 745.70 627.41 C755.52,626.93 760.04,626.33 760.37,625.48 C760.99,623.85 752.75,622.76 748.00,623.84 C746.08,624.28 741.73,624.46 738.35,624.24 C733.95,623.96 731.29,624.31 728.99,625.50 C727.09,626.49 724.79,626.91 723.33,626.55 C720.42,625.82 709.55,627.64 706.88,629.31 C705.85,629.95 705.00,630.97 705.00,631.57 C705.00,632.15 707.93,632.00 713.72,631.12 C707.83,632.07 701.85,633.20 695.50,634.53 C688.23,636.06 686.77,636.42 673.50,639.93 C662.14,642.93 627.11,656.58 618.00,661.54 C616.62,662.29 612.97,664.26 609.88,665.90 C601.85,670.18 580.82,682.92 578.75,684.76 C577.79,685.61 577.00,685.93 577.00,685.46 C577.00,685.00 576.44,685.31 575.75,686.15 C573.91,688.42 562.32,697.00 561.11,697.00 C560.54,697.00 559.59,697.90 559.00,699.00 C558.41,700.10 557.29,701.00 556.51,701.00 C555.74,701.00 554.71,701.69 554.24,702.53 C553.77,703.38 551.16,705.88 548.44,708.11 C545.72,710.33 538.70,716.84 532.84,722.57 C526.97,728.31 521.91,733.00 521.59,733.00 C521.26,733.00 521.00,732.16 521.00,731.13 C521.00,723.47 542.32,701.91 572.00,679.55 C623.65,640.65 693.56,616.00 752.21,616.00 C760.35,616.00 767.00,615.83 767.00,615.63 C767.00,615.43 765.69,610.81 764.09,605.38 C762.49,599.95 759.29,588.30 756.98,579.50 C754.66,570.70 750.15,553.83 746.96,542.00 C743.77,530.17 739.75,515.10 738.03,508.50 C731.79,484.48 729.82,478.88 727.30,477.92 C714.56,473.08 676.02,472.74 657.00,477.31 C639.01,481.63 611.94,491.49 612.04,493.69 C612.05,494.13 612.71,495.62 613.50,497.00 C615.17,499.92 615.34,501.00 614.12,501.00 C613.64,501.00 611.58,497.84 609.55,493.97 L 605.86 486.94 L 614.18 483.11 C628.75,476.42 649.62,470.35 667.62,467.56 C686.50,464.64 719.15,465.84 735.05,470.03 C735.28,470.09 735.50,470.15 735.70,470.21 C735.13,471.82 736.04,483.08 737.12,486.63 C737.65,488.35 738.96,490.56 740.04,491.53 C741.12,492.51 742.00,494.35 742.00,495.62 C742.00,497.29 742.43,497.77 743.53,497.35 C744.37,497.03 744.85,496.03 744.58,495.13 C744.32,494.23 742.89,488.55 741.41,482.50 C739.80,475.94 738.76,472.61 737.67,471.10 C738.85,472.11 739.39,474.23 740.86,480.23 C742.11,485.33 746.42,501.65 750.45,516.50 C750.60,517.05 750.75,517.61 750.90,518.18 C750.31,516.76 749.72,516.00 749.20,516.00 C748.10,516.00 747.94,516.85 748.48,519.75 C748.86,521.81 749.61,524.02 750.13,524.65 C750.66,525.29 750.80,526.95 750.45,528.35 C749.65,531.55 751.39,539.82 754.00,545.24 C755.10,547.51 756.00,549.98 756.00,550.73 C756.00,552.89 759.93,560.00 761.13,560.00 C761.39,560.00 761.58,559.87 761.69,559.65 C763.70,567.91 765.69,575.31 766.14,576.24 C766.61,577.19 767.02,579.22 767.04,580.74 C767.07,582.26 767.77,585.30 768.61,587.50 C769.21,589.07 770.63,593.67 772.18,598.97 C770.83,595.62 770.16,596.63 769.43,600.54 C768.96,603.00 769.21,604.60 770.23,605.79 C771.09,606.79 771.80,609.97 771.93,613.48 C772.06,616.77 772.38,619.81 772.64,620.23 C772.90,620.65 772.69,621.00 772.17,621.00 C771.64,621.00 770.95,620.33 770.64,619.50 C770.32,618.67 769.54,618.00 768.91,618.00 C768.10,618.00 768.06,618.37 768.79,619.25 C769.53,620.14 769.42,621.08 768.42,622.44 C766.45,625.13 768.20,626.09 774.50,625.76 C778.35,625.56 779.42,625.16 779.15,624.00 C779.01,623.39 778.40,621.00 777.65,618.12 C778.26,620.19 778.72,621.71 778.92,622.31 C779.60,624.31 779.53,625.21 778.68,625.45 C778.03,625.64 767.15,626.32 754.50,626.96 C740.47,627.67 728.48,628.82 716.20,630.72 C716.85,630.62 717.54,630.50 718.25,630.38 C725.54,629.13 737.89,627.79 745.70,627.41 ZM 272.97 533.30 C272.99,531.54 273.49,527.84 274.08,525.07 C274.67,522.31 274.99,519.25 274.79,518.27 C274.49,516.83 271.92,525.17 267.31,542.50 C267.01,543.66 268.07,542.83 269.86,540.50 C271.80,537.99 272.95,535.31 272.97,533.30 ZM 469.67 573.41 C468.83,575.62 465.29,575.40 464.04,573.07 C463.47,572.00 463.00,569.75 463.00,568.07 C463.00,565.66 463.43,565.00 465.02,565.00 C467.36,565.00 470.63,570.91 469.67,573.41 ZM 245.13 625.31 C245.16,625.40 245.20,625.47 245.24,625.54 C245.21,625.53 245.19,625.53 245.18,625.52 C245.15,625.49 245.14,625.42 245.13,625.31 Z" fill="rgb(123,62,7)"/>
<path d="M 549.48 335.40 C552.64,331.60 559.12,323.78 563.87,318.02 C568.62,312.26 576.24,303.37 580.80,298.27 C585.37,293.17 588.86,289.00 588.55,289.00 C588.24,289.00 583.69,291.59 578.43,294.75 C564.99,302.83 549.70,314.53 541.66,322.89 C537.89,326.80 534.63,330.00 534.41,330.00 C533.34,330.00 534.22,320.64 535.99,313.27 C539.81,297.34 550.21,280.65 562.51,270.75 C569.72,264.94 584.96,256.98 594.44,254.08 C603.36,251.34 617.76,249.01 625.77,249.00 C631.63,249.00 632.12,249.17 633.05,251.63 C633.79,253.57 633.51,257.31 632.00,265.75 C626.47,296.65 609.79,321.49 586.78,333.11 C574.98,339.08 567.43,341.13 555.11,341.73 L 543.72 342.29 ZM 464.50 367.49 C433.18,361.73 409.36,336.01 403.94,302.15 C402.33,292.03 402.58,291.75 412.84,292.43 C427.25,293.40 430.47,293.81 437.12,295.53 C444.58,297.46 456.74,302.88 459.25,305.39 C460.21,306.35 461.00,306.86 461.00,306.52 C461.00,305.29 469.61,311.94 474.12,316.66 C479.84,322.65 486.20,333.47 488.89,341.81 C491.55,350.03 492.45,355.00 491.30,355.00 C490.79,355.00 487.25,352.39 483.44,349.21 C479.62,346.02 473.58,341.59 470.00,339.35 C463.67,335.39 446.24,326.00 445.23,326.00 C444.95,326.00 447.65,329.04 451.24,332.75 C454.82,336.46 459.72,341.74 462.13,344.48 C464.53,347.22 470.46,353.58 475.31,358.60 C482.21,365.76 483.76,367.88 482.48,368.37 C480.02,369.32 472.36,368.94 464.50,367.49 Z" fill="rgb(182,208,46)"/>
<path d="M 498.52 627.99 C484.00,625.39 465.47,614.94 456.01,604.01 C443.67,589.77 437.65,574.00 437.68,556.00 C437.70,536.27 444.20,519.54 464.48,487.00 C465.68,485.08 470.19,477.88 474.50,471.00 C483.41,456.79 492.61,440.35 499.50,426.70 C499.68,426.50 500.00,426.12 500.44,425.56 C501.30,424.49 502.00,423.18 502.00,422.64 C502.00,422.22 501.95,422.00 501.83,422.01 C505.56,414.36 508.37,407.89 509.72,403.64 C511.66,397.54 512.50,396.79 513.54,400.25 C513.99,401.78 514.65,403.61 515.51,405.72 C513.99,402.68 512.79,401.10 512.09,401.23 C510.74,401.49 508.68,406.45 507.50,412.29 C507.19,413.83 506.51,414.82 505.98,414.49 C505.45,414.16 505.26,414.50 505.54,415.24 C506.19,416.95 495.73,439.09 487.38,453.66 C483.86,459.80 475.78,473.07 469.43,483.16 C453.21,508.92 443.28,530.03 440.85,543.93 C438.54,557.17 441.34,576.74 446.87,586.06 C448.00,587.95 449.69,591.08 450.63,593.00 C451.57,594.92 456.47,600.59 461.52,605.60 C469.46,613.46 471.77,615.13 478.60,617.95 C482.95,619.74 487.93,622.08 489.68,623.14 C491.43,624.21 496.15,625.68 500.18,626.41 C509.54,628.11 510.77,628.19 511.41,627.14 C511.70,626.67 514.47,625.98 517.56,625.62 C524.46,624.81 536.07,621.75 542.14,619.15 C544.63,618.09 547.82,617.43 549.22,617.70 C550.30,617.91 551.41,617.85 552.38,617.61 C547.37,620.87 541.94,623.46 535.50,625.74 C529.82,627.74 526.14,628.27 516.00,628.55 C509.12,628.74 501.26,628.49 498.52,627.99 ZM 555.34 615.56 C555.48,615.20 555.49,614.82 555.34,614.44 C554.95,613.43 556.73,611.13 560.63,607.60 C563.86,604.67 568.75,599.00 571.50,594.98 C574.25,590.97 577.92,586.16 579.66,584.29 C581.23,582.59 582.55,580.21 583.60,577.24 C580.34,588.32 574.18,598.02 564.60,607.56 C561.53,610.61 558.50,613.25 555.34,615.56 ZM 559.98 487.00 C546.04,464.44 535.09,445.40 526.77,429.26 C535.27,445.52 546.98,465.96 559.98,487.00 ZM 583.59 533.96 C580.11,521.73 573.02,508.11 559.98,487.00 C573.07,508.20 580.14,521.74 583.59,533.96 Z" fill="rgb(231,175,87)"/>
<path d="M 531.58 784.68 L 526.65 790.00 L 497.33 790.00 L 494.67 787.25 C493.21,785.74 490.99,783.33 489.75,781.89 C481.43,772.25 449.50,747.42 436.50,740.48 C433.20,738.72 428.70,736.04 426.50,734.53 C424.30,733.02 415.68,728.45 407.34,724.37 C388.38,715.10 381.46,712.46 351.50,703.07 C333.61,697.46 331.64,696.98 314.00,694.01 C307.12,692.86 298.12,691.22 294.00,690.38 C289.88,689.55 277.05,688.40 265.50,687.84 C227.49,686.01 194.02,688.46 166.56,695.08 C157.01,697.39 154.00,697.50 154.00,695.55 C154.00,694.76 156.98,687.45 160.62,679.30 C164.25,671.16 168.49,661.58 170.02,658.00 C171.55,654.42 174.68,647.22 176.97,642.00 C182.95,628.34 198.84,588.76 204.59,573.20 L 209.50 559.89 L 216.00 556.20 C225.98,550.54 240.35,545.07 245.36,545.02 C245.46,545.02 245.56,545.02 245.65,545.02 C246.43,545.01 247.00,545.00 247.34,545.28 C248.33,546.10 247.27,549.39 243.12,562.31 L 242.58 564.00 C240.19,571.42 237.02,581.55 235.53,586.50 C234.04,591.45 229.15,606.75 224.66,620.50 C220.17,634.25 216.37,646.00 216.20,646.61 C215.99,647.41 221.33,647.58 235.17,647.21 C273.92,646.20 305.20,650.44 347.00,662.37 C359.70,666.00 386.55,676.20 390.50,678.91 C391.05,679.28 394.20,680.61 397.50,681.85 C404.45,684.46 405.36,684.93 415.74,691.16 C420.01,693.72 425.78,697.09 428.57,698.66 C434.50,701.99 448.93,711.58 454.13,715.66 C474.60,731.69 493.22,749.16 504.87,763.25 C508.85,768.06 512.41,771.98 512.80,771.95 C513.18,771.93 515.30,769.34 517.50,766.20 C526.45,753.44 569.29,714.07 580.50,708.31 C582.15,707.46 584.40,705.97 585.50,705.01 C586.60,704.04 590.20,701.79 593.50,700.00 C601.72,695.55 605.59,693.28 611.87,689.21 C614.82,687.30 620.22,684.66 623.87,683.35 C627.52,682.03 631.72,680.07 633.21,678.98 C634.70,677.89 636.52,677.00 637.26,677.00 C638.00,677.00 639.03,676.64 639.55,676.20 C640.07,675.77 642.30,674.84 644.50,674.14 C648.87,672.76 654.04,670.76 661.00,667.76 C668.38,664.58 669.28,664.27 674.50,663.12 C677.25,662.52 682.88,661.08 687.00,659.91 C694.15,657.90 696.50,657.30 706.25,655.00 C728.84,649.67 761.42,646.56 788.25,647.18 C801.25,647.48 808.00,647.29 808.00,646.62 C808.00,646.06 804.43,634.56 800.07,621.05 C795.71,607.55 790.50,591.10 788.50,584.50 C786.49,577.90 784.22,570.70 783.45,568.50 C781.54,563.02 777.00,547.19 777.00,545.98 C777.00,545.44 777.95,545.00 779.11,545.00 C782.35,545.00 799.60,551.70 808.03,556.22 L 815.56 560.27 L 818.17 567.38 C819.60,571.30 822.34,578.79 824.25,584.04 C827.79,593.76 835.79,613.48 843.50,631.50 C851.91,651.15 866.09,683.59 868.52,688.77 C871.61,695.34 871.66,697.01 868.75,696.96 C866.51,696.91 865.25,696.68 851.00,693.64 C831.22,689.43 810.32,687.61 783.00,687.70 C753.09,687.81 741.80,688.65 721.00,692.32 C692.73,697.30 663.69,705.39 638.61,715.26 C622.34,721.67 582.40,742.58 580.00,745.94 C579.72,746.33 578.68,746.95 577.67,747.32 C571.69,749.53 541.33,774.14 531.58,784.68 ZM 548.04 617.25 C548.03,617.41 548.11,617.54 548.25,617.65 C546.64,617.70 544.16,618.29 542.14,619.15 C536.07,621.75 524.46,624.81 517.56,625.62 C514.47,625.98 511.70,626.67 511.41,627.14 C510.86,628.04 509.87,628.11 503.68,627.03 C509.43,627.95 511.28,627.70 511.76,626.25 C512.05,625.36 510.65,625.00 506.83,624.98 C503.90,624.98 498.80,624.33 495.51,623.56 C492.21,622.78 489.36,622.30 489.17,622.49 C489.08,622.59 489.06,622.70 489.12,622.82 C487.02,621.66 482.55,619.58 478.60,617.95 C471.77,615.13 469.46,613.46 461.52,605.60 C456.47,600.59 451.57,594.92 450.63,593.00 C449.69,591.08 448.00,587.95 446.87,586.06 C441.34,576.74 438.54,557.17 440.85,543.93 C443.28,530.03 453.21,508.92 469.43,483.16 C475.78,473.07 483.86,459.80 487.38,453.66 C495.73,439.09 506.19,416.95 505.54,415.24 C505.26,414.50 505.45,414.16 505.98,414.49 C506.51,414.82 507.19,413.83 507.50,412.29 C507.85,410.58 508.27,408.94 508.73,407.47 C508.44,408.90 508.34,410.32 508.55,411.41 C508.87,413.11 508.68,416.30 508.14,418.50 C504.32,433.98 500.46,446.21 496.00,457.00 C477.69,501.33 475.72,508.20 475.63,528.00 C475.57,543.36 476.92,549.84 482.69,561.92 C490.53,578.32 508.13,590.81 528.50,594.43 C543.32,597.06 563.21,593.31 574.15,585.82 C577.20,583.73 578.44,583.48 577.39,585.17 C577.00,585.81 577.87,585.48 579.33,584.42 C579.79,584.08 580.25,583.61 580.69,583.02 C580.36,583.48 580.01,583.90 579.66,584.29 C577.92,586.16 574.25,590.97 571.50,594.98 C568.75,599.00 563.86,604.67 560.63,607.60 C557.20,610.70 555.41,612.85 555.29,614.01 C554.83,612.27 554.65,612.32 551.45,614.36 C549.60,615.53 548.07,616.84 548.04,617.25 ZM 505.54 732.02 C501.44,724.14 497.35,718.00 496.13,718.00 C495.33,718.00 489.69,713.09 483.59,707.09 C465.30,689.08 446.73,674.34 430.00,664.51 C389.18,640.56 367.17,631.64 326.00,622.36 C307.40,618.17 293.81,616.41 272.72,615.46 C257.23,614.77 256.96,614.72 257.62,612.63 C258.51,609.83 263.89,589.48 270.47,564.00 C273.38,552.72 276.52,540.80 277.43,537.50 C278.34,534.20 280.63,525.65 282.51,518.50 C284.39,511.35 287.65,499.42 289.75,492.00 L 293.57 478.50 L 300.53 476.66 C309.72,474.22 335.89,473.32 350.08,474.94 C366.69,476.84 396.50,485.13 408.21,491.11 C410.46,492.26 411.53,492.77 411.76,493.52 C411.96,494.19 411.51,495.05 410.66,496.70 C410.61,496.79 410.56,496.89 410.50,496.99 C409.49,498.96 409.35,500.10 410.07,500.54 C410.38,500.73 410.70,500.86 410.95,500.91 C410.88,500.97 410.81,501.00 410.76,501.00 C410.31,501.00 408.26,500.28 406.22,499.40 C379.89,488.04 345.78,482.44 317.74,484.87 C310.51,485.50 304.26,486.35 303.87,486.76 C303.18,487.46 290.85,534.59 286.93,551.50 C285.91,555.90 284.13,563.10 282.97,567.50 C277.42,588.57 274.97,599.14 275.43,599.89 C275.71,600.34 281.02,601.03 287.22,601.41 C317.17,603.27 349.37,610.79 378.50,622.73 C434.65,645.74 482.61,687.02 505.54,732.02 ZM 572.00 679.55 C548.74,697.07 530.62,714.10 523.86,724.33 C524.77,722.71 525.90,720.79 527.29,718.52 C527.96,717.44 529.89,714.28 531.59,711.51 C533.29,708.73 535.32,705.80 536.10,704.98 C536.88,704.17 539.88,700.52 542.75,696.88 C549.57,688.23 568.91,669.67 580.25,660.91 C624.80,626.48 681.08,605.34 738.50,601.45 C743.45,601.12 748.02,600.68 748.65,600.49 C749.48,600.24 749.24,598.04 747.83,592.82 C746.75,588.79 740.26,563.26 733.42,536.07 C726.57,508.88 720.80,486.47 720.60,486.26 C720.39,486.06 713.17,485.38 704.55,484.75 C687.93,483.55 673.99,484.36 655.36,487.61 C646.28,489.19 625.43,495.76 618.79,499.12 C617.12,499.96 615.43,500.68 614.59,500.92 C615.25,500.62 614.91,499.47 613.50,497.00 C612.71,495.62 612.05,494.13 612.04,493.69 C611.94,491.49 639.01,481.63 657.00,477.31 C676.02,472.74 714.56,473.08 727.30,477.92 C729.82,478.88 731.79,484.48 738.03,508.50 C739.75,515.10 743.77,530.17 746.96,542.00 C750.15,553.83 754.66,570.70 756.98,579.50 C759.29,588.30 762.49,599.95 764.09,605.38 C765.69,610.81 767.00,615.43 767.00,615.63 C767.00,615.83 760.35,616.00 752.21,616.00 C693.56,616.00 623.65,640.65 572.00,679.55 ZM 469.67 573.41 C470.63,570.91 467.36,565.00 465.02,565.00 C463.43,565.00 463.00,565.66 463.00,568.07 C463.00,569.75 463.47,572.00 464.04,573.07 C465.29,575.40 468.83,575.62 469.67,573.41 ZM 499.50 426.70 C500.31,425.10 501.08,423.53 501.83,422.01 C501.95,422.00 502.00,422.22 502.00,422.64 C502.00,423.18 501.30,424.49 500.44,425.56 C500.00,426.12 499.68,426.50 499.50,426.70 ZM 584.27 536.53 C580.95,523.47 573.99,509.69 560.00,487.04 C573.07,508.21 580.13,521.74 583.59,533.94 L 583.59 533.96 C583.84,534.82 584.06,535.68 584.27,536.53 ZM 581.34 582.06 C582.40,580.34 583.36,577.96 584.17,575.18 C583.99,575.87 583.80,576.56 583.60,577.24 C582.95,579.08 582.20,580.69 581.34,582.06 ZM 414.45 495.12 C415.70,492.41 416.85,489.61 416.99,488.76 C416.85,489.86 415.72,492.54 414.45,495.12 ZM 417.00 488.60 C416.96,486.98 413.07,484.48 406.86,481.73 C413.10,484.48 417.00,486.98 417.00,488.57 C417.00,488.58 417.00,488.59 417.00,488.60 ZM 513.66 402.52 C514.20,403.27 514.82,404.35 515.51,405.72 C515.55,405.82 515.59,405.93 515.63,406.03 C514.93,404.62 514.24,403.40 513.66,402.52 ZM 555.34 615.56 L 555.27 615.61 C555.38,615.31 555.43,615.00 555.41,614.67 C555.48,614.97 555.45,615.27 555.34,615.56 ZM 614.21 501.00 C614.19,501.00 614.18,501.00 614.16,501.00 C614.16,501.00 614.16,501.00 614.16,501.00 C614.17,501.00 614.19,501.00 614.21,501.00 ZM 507.76 737.57 L 507.77 737.56 C507.77,737.57 507.77,737.57 507.76,737.57 Z" fill="rgb(234,116,17)"/>
<path d="M 584.27 536.53 C585.89,543.11 586.48,549.42 586.43,556.50 C586.39,563.22 585.66,569.39 584.17,575.18 C583.36,577.96 582.40,580.34 581.34,582.06 C581.13,582.40 580.92,582.72 580.69,583.02 C580.25,583.61 579.79,584.08 579.33,584.42 C577.87,585.48 577.00,585.81 577.39,585.17 C578.44,583.48 577.20,583.73 574.15,585.82 C563.21,593.31 543.32,597.06 528.50,594.43 C508.13,590.81 490.53,578.32 482.69,561.92 C476.92,549.84 475.57,543.36 475.63,528.00 C475.72,508.20 477.69,501.33 496.00,457.00 C500.46,446.21 504.32,433.98 508.14,418.50 C508.68,416.30 508.87,413.11 508.55,411.41 C508.34,410.32 508.44,408.90 508.73,407.47 C509.83,403.94 511.14,401.41 512.09,401.23 C512.48,401.16 513.01,401.60 513.66,402.52 C514.24,403.40 514.93,404.62 515.63,406.03 C518.03,411.92 521.87,419.90 526.77,429.26 C535.09,445.40 546.04,464.44 559.98,487.00 L 560.00 487.04 L 560.00 487.04 C573.99,509.69 580.95,523.47 584.27,536.53 ZM 561.82 568.49 C562.63,569.29 568.49,560.60 571.09,554.74 C574.10,547.97 574.36,534.57 571.62,527.87 C566.73,515.91 562.07,507.71 551.41,492.30 C540.15,476.04 528.83,455.73 522.53,440.50 C519.24,432.54 517.42,429.92 518.37,434.50 C518.71,436.15 519.42,439.61 519.95,442.19 C520.49,444.76 523.01,452.86 525.56,460.19 C528.12,467.51 531.69,478.35 533.52,484.28 C535.61,491.09 538.48,497.71 541.33,502.28 C546.77,511.02 554.94,526.84 557.21,533.00 C560.41,541.74 562.27,552.93 561.78,560.59 C561.52,564.65 561.54,568.20 561.82,568.49 ZM 489.68 623.14 C489.52,623.05 489.33,622.94 489.12,622.82 C489.06,622.70 489.08,622.59 489.17,622.49 C489.36,622.30 492.21,622.78 495.51,623.56 C498.80,624.33 503.90,624.98 506.83,624.98 C510.65,625.00 512.05,625.36 511.76,626.25 C511.28,627.70 509.43,627.95 503.68,627.03 C502.66,626.85 501.50,626.65 500.18,626.41 C496.15,625.68 491.43,624.21 489.68,623.14 ZM 548.04 617.25 C548.07,616.84 549.60,615.53 551.45,614.36 C554.65,612.32 554.83,612.27 555.29,614.01 C555.28,614.18 555.29,614.32 555.34,614.44 C555.37,614.52 555.39,614.59 555.41,614.67 C555.43,615.00 555.38,615.31 555.27,615.61 C554.32,616.30 553.36,616.97 552.38,617.61 C551.41,617.85 550.30,617.91 549.22,617.70 C548.96,617.65 548.63,617.63 548.25,617.65 C548.11,617.54 548.03,617.41 548.04,617.25 Z" fill="rgb(252,202,8)"/>
<path d="M 505.54 732.02 L 505.53 732.01 C482.60,687.01 434.65,645.74 378.50,622.73 C349.37,610.79 317.17,603.27 287.22,601.41 C281.02,601.03 275.71,600.34 275.43,599.89 C274.97,599.14 277.42,588.57 282.97,567.50 C284.13,563.10 285.91,555.90 286.93,551.50 C290.85,534.59 303.18,487.46 303.87,486.76 C304.26,486.35 310.51,485.50 317.74,484.87 C345.78,482.44 379.89,488.04 406.22,499.40 C408.26,500.28 410.31,501.00 410.76,501.00 C410.81,501.00 410.88,500.97 410.95,500.91 C411.18,500.96 411.36,500.94 411.45,500.85 C411.91,500.33 412.98,498.27 414.06,495.97 C413.32,497.71 412.48,499.63 411.59,501.61 C403.29,520.20 400.28,530.65 399.01,545.35 C398.23,554.48 398.23,560.42 399.02,566.75 C401.39,585.73 409.31,605.87 420.36,621.00 C427.55,630.84 448.09,650.00 451.46,650.00 C451.79,650.00 455.10,651.72 458.81,653.83 C462.53,655.93 467.13,658.24 469.03,658.95 C470.94,659.66 474.30,660.90 476.50,661.71 C483.20,664.17 501.96,666.99 511.75,666.99 C530.76,667.01 554.03,661.27 567.50,653.23 C580.70,645.37 584.72,642.25 594.80,632.08 C620.17,606.47 632.20,560.06 621.87,527.62 C620.84,524.39 620.00,521.22 620.00,520.59 C620.00,519.96 618.38,516.08 616.39,511.97 C614.41,507.86 612.70,503.38 612.59,502.00 C612.49,500.69 611.09,497.06 609.43,493.73 L 609.55 493.97 C611.58,497.84 613.64,501.00 614.12,501.00 C614.13,501.00 614.15,501.00 614.16,501.00 L 614.16 501.00 L 614.19 501.00 L 614.21 501.00 C614.36,500.99 614.49,500.97 614.59,500.92 C615.43,500.68 617.12,499.96 618.79,499.12 C625.43,495.76 646.28,489.19 655.36,487.61 C673.99,484.36 687.93,483.55 704.55,484.75 C713.17,485.38 720.39,486.06 720.60,486.26 C720.80,486.47 726.57,508.88 733.42,536.07 C740.26,563.26 746.75,588.79 747.83,592.82 C749.24,598.04 749.48,600.24 748.65,600.49 C748.02,600.68 743.45,601.12 738.50,601.45 C681.08,605.34 624.80,626.48 580.25,660.91 C568.91,669.67 549.57,688.23 542.75,696.88 C539.88,700.52 536.88,704.17 536.10,704.98 C535.32,705.80 533.29,708.73 531.59,711.51 C529.89,714.28 527.96,717.44 527.29,718.52 C525.90,720.79 524.77,722.71 523.86,724.33 C522.00,727.16 521.00,729.47 521.00,731.13 C521.00,732.16 521.26,733.00 521.59,733.00 C521.75,733.00 523.04,731.88 525.01,730.06 C520.25,734.81 516.68,738.63 516.10,739.75 C515.30,741.28 514.02,742.00 512.09,742.00 C509.43,742.00 506.42,739.92 507.50,738.83 C508.14,738.20 486.72,717.23 474.71,706.48 C481.92,712.62 488.58,718.94 496.45,726.88 L 496.79 727.22 C498.04,728.48 499.25,729.68 500.37,730.79 C500.49,730.91 500.61,731.02 500.73,731.14 C501.01,731.42 501.29,731.69 501.57,731.96 C501.57,731.96 501.57,731.97 501.58,731.97 C502.01,732.46 502.49,732.98 503.00,733.50 C505.41,735.95 507.55,737.79 507.76,737.58 C507.76,737.57 507.76,737.57 507.76,737.57 C507.77,737.57 507.77,737.57 507.77,737.56 C507.77,737.56 507.77,737.56 507.77,737.56 L 507.77 737.56 C507.98,737.35 507.39,735.68 506.47,733.84 C506.16,733.23 505.85,732.62 505.54,732.02 ZM 533.10 462.36 C532.18,461.09 530.38,458.94 527.04,455.00 C524.45,451.96 524.05,451.78 524.03,453.59 C524.01,454.74 525.39,459.69 527.09,464.59 C528.36,468.23 530.28,474.07 531.93,479.26 C530.03,473.33 527.50,465.75 525.56,460.19 C523.01,452.86 520.49,444.76 519.95,442.19 C519.42,439.61 518.71,436.15 518.37,434.50 C517.42,429.92 519.24,432.54 522.53,440.50 C525.26,447.08 528.91,454.61 533.10,462.36 ZM 215.00 688.09 C230.73,687.06 247.61,686.98 265.50,687.84 C277.05,688.40 289.88,689.55 294.00,690.38 C298.12,691.22 307.12,692.86 314.00,694.01 C331.64,696.98 333.61,697.46 351.50,703.07 C354.80,704.10 357.82,705.05 360.60,705.94 C349.43,702.44 339.88,699.92 335.50,699.44 C332.20,699.08 328.57,698.20 327.43,697.49 C324.23,695.48 293.92,690.20 285.50,690.18 C283.85,690.18 280.02,689.64 277.00,689.00 C270.68,687.64 235.55,687.31 215.00,688.09 ZM 255.59 647.19 C248.96,647.02 242.19,647.03 235.17,647.21 C221.33,647.58 215.99,647.41 216.20,646.61 C216.37,646.00 220.17,634.25 224.66,620.50 C227.66,611.32 230.83,601.45 233.06,594.43 C231.06,600.82 228.36,609.38 225.89,617.15 C218.80,639.42 218.08,642.99 220.29,644.82 C221.02,645.43 228.87,646.14 238.54,646.46 C244.54,646.67 250.21,646.91 255.59,647.19 ZM 804.05 633.52 C806.41,640.99 808.00,646.25 808.00,646.62 C808.00,647.29 801.25,647.48 788.25,647.18 C771.81,646.80 753.20,647.82 736.06,649.89 C740.09,649.38 744.22,648.91 748.50,648.49 C756.75,647.69 769.58,646.96 777.00,646.89 C784.42,646.81 793.60,646.47 797.38,646.13 C801.30,645.77 803.78,645.60 804.95,644.28 C806.26,642.79 805.91,639.84 804.05,633.52 ZM 386.00 676.64 C376.82,672.55 357.28,665.31 347.00,662.37 C329.19,657.29 313.28,653.60 297.89,651.12 C308.33,652.65 317.77,654.58 327.00,657.00 C333.33,658.65 345.92,661.88 355.00,664.16 C364.08,666.44 372.17,668.87 373.00,669.57 C374.34,670.69 380.09,673.76 386.00,676.64 ZM 561.82 568.49 C561.54,568.20 561.52,564.65 561.78,560.59 C562.03,556.61 561.65,551.68 560.78,546.64 C561.52,550.49 562.00,554.08 562.00,556.37 C562.00,558.82 562.29,561.60 562.65,562.54 C563.23,564.05 563.53,563.97 565.21,561.87 C566.26,560.57 568.02,557.48 569.12,555.02 C570.22,552.56 571.66,550.21 572.31,549.80 C572.46,549.72 572.59,549.54 572.70,549.30 C572.31,551.35 571.77,553.22 571.09,554.74 C568.49,560.60 562.63,569.29 561.82,568.49 ZM 869.08 696.95 C871.65,696.87 871.49,695.08 868.52,688.77 C866.64,684.76 857.71,664.40 849.88,646.30 C858.24,665.29 865.48,680.65 866.93,681.67 C868.13,682.50 869.00,684.22 869.00,685.74 C869.00,687.19 869.94,689.37 871.09,690.60 C873.92,693.61 872.90,697.02 869.18,696.96 ZM 162.28 675.56 C161.72,676.83 161.16,678.08 160.62,679.30 C156.98,687.45 154.00,694.76 154.00,695.55 C154.00,696.07 154.22,696.45 154.72,696.67 C153.14,696.40 152.38,695.65 152.20,694.41 C152.04,693.26 152.60,691.75 153.45,691.04 C154.30,690.33 155.00,688.49 155.00,686.95 C155.00,684.31 156.48,682.04 159.35,680.27 C159.95,679.90 161.19,677.89 162.28,675.56 ZM 519.71 762.75 C524.70,757.34 530.66,751.30 536.91,745.25 C528.12,753.79 520.68,761.67 517.50,766.20 C515.30,769.34 513.18,771.93 512.80,771.95 C512.41,771.98 508.85,768.06 504.87,763.25 C496.32,752.90 484.01,740.74 469.97,728.66 C482.46,739.38 493.37,749.96 501.98,759.75 C506.94,765.39 510.86,769.00 512.04,769.00 C513.12,769.00 516.48,766.26 519.71,762.75 ZM 663.75 666.58 C662.94,666.92 662.04,667.31 661.00,667.76 C654.04,670.76 648.87,672.76 644.50,674.14 C642.30,674.84 640.08,675.77 639.55,676.20 C640.08,675.77 642.29,674.80 644.47,674.06 C646.65,673.32 649.23,671.71 650.19,670.48 C651.50,668.82 653.30,668.14 657.22,667.80 C659.24,667.63 661.76,667.15 663.75,666.58 ZM 495.38 318.47 C502.00,328.65 506.09,340.20 507.59,353.00 C507.95,356.02 508.43,358.84 508.68,359.25 C509.64,360.89 511.82,359.85 512.91,357.22 C513.54,355.69 515.32,352.54 516.85,350.22 L 516.94 350.08 C515.73,352.13 513.93,355.36 512.28,358.50 L 508.06 366.50 L 507.95 360.00 C507.69,344.98 503.25,330.70 495.38,318.47 ZM 722.31 692.09 C733.93,690.06 742.67,688.95 753.71,688.34 C751.39,688.52 749.66,688.74 748.50,688.98 C745.20,689.69 739.80,690.38 736.50,690.52 C732.58,690.68 727.76,691.23 722.31,692.09 ZM 783.87 569.75 C784.87,572.76 786.78,578.85 788.50,584.50 C790.35,590.60 794.93,605.10 799.06,617.92 C792.88,598.99 789.74,589.08 783.87,569.75 ZM 695.89 697.51 C677.66,701.92 657.63,707.96 641.29,714.22 C658.26,707.70 676.94,701.99 695.89,697.51 ZM 556.08 499.17 C554.92,497.44 553.68,495.66 552.37,493.79 C546.51,485.47 534.00,465.23 534.00,464.08 C534.00,464.05 534.00,464.03 534.00,464.00 C539.29,473.66 545.36,483.56 551.41,492.30 C553.11,494.76 554.65,497.03 556.08,499.17 ZM 573.49 542.06 C573.46,536.96 572.78,530.71 571.60,527.81 C569.24,522.05 566.79,516.89 563.78,511.55 C566.84,516.96 569.20,521.95 571.62,527.87 C573.06,531.39 573.67,536.77 573.49,542.06 ZM 397.50 681.81 C402.29,683.64 404.24,684.44 408.34,686.78 C404.21,684.43 402.29,683.65 397.50,681.85 C394.20,680.61 391.05,679.28 390.50,678.91 C390.25,678.74 389.92,678.54 389.50,678.32 C392.57,679.76 395.45,681.03 397.50,681.81 ZM 444.10 281.97 C454.00,284.85 463.05,288.97 471.08,294.26 L 471.00 294.21 C462.76,288.90 453.78,284.82 444.10,281.97 ZM 184.07 625.08 C181.20,632.06 178.68,638.09 176.97,642.00 C176.11,643.97 175.13,646.21 174.16,648.44 C177.49,640.73 180.83,632.88 184.07,625.08 ZM 172.23 652.88 C171.36,654.89 170.58,656.69 170.02,658.00 C168.81,660.83 165.90,667.43 162.93,674.10 C164.22,671.12 167.11,664.51 169.55,659.00 C170.44,656.98 171.34,654.93 172.23,652.88 ZM 540.36 715.38 C543.80,712.17 546.85,709.40 548.44,708.11 C548.84,707.78 549.24,707.45 549.63,707.11 C548.51,708.14 547.27,709.24 546.00,710.35 C544.26,711.86 542.35,713.57 540.36,715.38 ZM 416.99 488.44 C416.78,486.84 412.93,484.41 406.87,481.74 C413.06,484.44 417.00,486.87 417.00,488.35 C417.00,488.37 417.00,488.40 416.99,488.44 ZM 392.76 717.54 C397.17,719.47 401.73,721.63 407.34,724.37 C410.20,725.77 413.10,727.23 415.76,728.60 C408.64,724.96 399.61,720.60 392.76,717.54 ZM 168.43 694.64 C174.30,693.28 180.44,692.10 186.83,691.11 C180.24,692.17 174.05,693.35 168.43,694.64 ZM 438.20 679.16 C436.09,677.81 434.65,677.00 434.27,677.00 C433.93,677.00 431.36,675.49 428.57,673.65 C431.36,675.49 433.97,677.00 434.36,677.00 C434.76,677.00 436.30,677.84 437.79,678.88 ZM 369.10 708.69 C374.13,710.35 378.32,711.81 382.14,713.24 C377.81,711.66 373.40,710.13 369.10,708.69 ZM 518.12 348.21 C518.70,347.19 519.03,346.37 519.16,345.37 C519.04,346.56 518.71,347.36 518.12,348.21 ZM 777.37 545.43 C777.65,545.01 778.24,545.00 779.11,545.00 C778.39,545.00 777.76,545.17 777.37,545.43 Z" fill="rgb(252,239,211)"/>
<path d="M 0.00 512.00 L 0.00 0.00 L 512.00 0.00 L 1024.00 0.00 L 1024.00 512.00 L 1024.00 1024.00 L 512.00 1024.00 L 0.00 1024.00 L 0.00 512.00 ZM 531.58 784.68 C541.33,774.14 571.69,749.53 577.67,747.32 C578.68,746.95 579.72,746.33 580.00,745.94 C582.42,742.55 622.37,721.66 638.85,715.17 C669.85,702.96 715.77,691.37 736.50,690.52 C739.80,690.38 745.20,689.69 748.50,688.98 C752.53,688.12 763.53,687.68 782.00,687.65 C810.34,687.59 831.03,689.39 851.00,693.64 C865.39,696.71 866.52,696.91 869.18,696.96 C872.90,697.02 873.92,693.61 871.09,690.60 C869.94,689.37 869.00,687.19 869.00,685.74 C869.00,684.22 868.13,682.50 866.93,681.67 C863.87,679.52 834.83,613.11 824.25,584.04 C822.34,578.79 819.60,571.30 818.17,567.38 L 815.56 560.27 L 808.03 556.22 C799.60,551.70 782.35,545.00 779.11,545.00 C776.41,545.00 776.42,545.05 780.09,557.24 C788.83,586.21 791.81,595.75 799.58,619.50 C808.10,645.59 808.14,645.15 797.38,646.13 C793.60,646.47 784.42,646.81 777.00,646.89 C769.58,646.96 756.75,647.69 748.50,648.49 C725.98,650.70 707.50,654.13 687.00,659.91 C682.88,661.08 677.25,662.53 674.50,663.14 C671.75,663.75 667.92,664.95 666.00,665.80 C664.08,666.66 660.13,667.56 657.22,667.80 C653.30,668.14 651.50,668.82 650.19,670.48 C649.23,671.71 646.65,673.32 644.47,674.06 C642.29,674.80 640.07,675.77 639.55,676.20 C639.03,676.64 638.00,677.00 637.26,677.00 C636.52,677.00 634.70,677.89 633.21,678.98 C631.72,680.07 627.52,682.03 623.87,683.35 C620.22,684.66 614.82,687.30 611.87,689.21 C605.59,693.28 601.72,695.55 593.50,700.00 C590.20,701.79 586.60,704.04 585.50,705.01 C584.40,705.97 582.15,707.46 580.50,708.31 C571.10,713.14 538.46,742.38 519.71,762.75 C516.48,766.26 513.12,769.00 512.04,769.00 C510.86,769.00 506.94,765.39 501.98,759.75 C489.90,746.02 473.29,730.71 454.12,715.66 C448.97,711.61 434.53,702.01 428.57,698.66 C425.78,697.09 420.01,693.72 415.74,691.16 C405.41,684.95 404.47,684.47 397.50,681.81 C390.81,679.26 375.32,671.51 373.00,669.57 C372.17,668.87 364.08,666.44 355.00,664.16 C345.92,661.88 333.33,658.65 327.00,657.00 C303.32,650.79 278.27,647.81 238.54,646.46 C228.87,646.14 221.02,645.43 220.29,644.82 C218.08,642.99 218.80,639.42 225.89,617.15 C229.68,605.24 234.01,591.45 235.51,586.50 C237.01,581.55 240.19,571.42 242.58,564.00 C248.88,544.40 248.79,545.00 245.36,545.02 C240.35,545.07 225.98,550.54 216.00,556.20 L 209.50 559.89 L 204.59 573.20 C195.64,597.42 182.32,630.04 169.55,659.00 C167.00,664.78 163.95,671.75 162.76,674.50 C161.58,677.25 160.04,679.85 159.35,680.27 C156.48,682.04 155.00,684.31 155.00,686.95 C155.00,688.49 154.30,690.33 153.45,691.04 C152.60,691.75 152.04,693.26 152.20,694.41 C152.62,697.34 156.31,697.53 166.25,695.15 C176.85,692.61 189.66,690.43 203.50,688.82 C217.44,687.20 269.19,687.32 277.00,689.00 C280.02,689.64 283.85,690.18 285.50,690.18 C293.92,690.20 324.23,695.48 327.43,697.49 C328.57,698.20 332.20,699.08 335.50,699.44 C342.97,700.26 365.42,707.00 385.34,714.41 C394.15,717.69 421.32,730.97 426.50,734.53 C428.70,736.04 433.20,738.72 436.50,740.48 C449.50,747.42 481.43,772.25 489.75,781.89 C490.99,783.33 493.21,785.74 494.67,787.25 L 497.33 790.00 L 511.99 790.00 L 526.65 790.00 L 531.58 784.68 ZM 516.10 739.75 C517.45,737.15 535.04,719.86 546.00,710.35 C550.12,706.77 553.86,703.20 554.30,702.42 C554.74,701.64 555.74,701.00 556.51,701.00 C557.29,701.00 558.41,700.10 559.00,699.00 C559.59,697.90 560.54,697.00 561.11,697.00 C562.32,697.00 573.91,688.42 575.75,686.15 C576.44,685.31 577.00,685.00 577.00,685.46 C577.00,685.93 577.79,685.61 578.75,684.76 C580.82,682.92 601.85,670.18 609.88,665.90 C612.97,664.26 616.62,662.29 618.00,661.54 C627.11,656.58 662.14,642.93 673.50,639.93 C686.77,636.42 688.23,636.06 695.50,634.53 C716.05,630.21 732.83,628.06 754.50,626.96 C767.15,626.32 778.03,625.64 778.68,625.45 C779.53,625.21 779.60,624.31 778.92,622.31 C778.40,620.76 776.20,613.20 774.05,605.50 C771.89,597.80 769.44,589.70 768.61,587.50 C767.77,585.30 767.07,582.26 767.04,580.74 C767.02,579.22 766.61,577.19 766.14,576.24 C765.67,575.28 763.60,567.53 761.53,559.00 C759.46,550.47 754.48,531.35 750.45,516.50 C746.42,501.65 742.11,485.33 740.86,480.23 C738.63,471.10 738.54,470.95 735.05,470.03 C719.15,465.84 686.50,464.64 667.62,467.56 C649.64,470.34 628.75,476.42 614.21,483.10 L 605.92 486.91 L 609.16 493.20 C610.94,496.67 612.48,500.62 612.59,502.00 C612.70,503.38 614.41,507.86 616.39,511.97 C618.38,516.08 620.00,519.96 620.00,520.59 C620.00,521.22 620.84,524.39 621.87,527.62 C632.20,560.06 620.17,606.47 594.80,632.08 C584.72,642.25 580.70,645.37 567.50,653.23 C554.03,661.27 530.76,667.01 511.75,666.99 C501.96,666.99 483.20,664.17 476.50,661.71 C474.30,660.90 470.94,659.66 469.03,658.95 C467.13,658.24 462.53,655.93 458.81,653.83 C455.10,651.72 451.79,650.00 451.46,650.00 C448.09,650.00 427.55,630.84 420.36,621.00 C409.31,605.87 401.39,585.73 399.02,566.75 C398.23,560.42 398.23,554.48 399.01,545.35 C400.28,530.65 403.29,520.20 411.59,501.61 C414.57,494.96 417.00,488.99 417.00,488.35 C417.00,484.98 396.65,476.70 375.67,471.53 C357.09,466.94 357.76,467.03 334.50,466.34 C318.72,465.88 312.14,466.10 303.34,467.40 C286.09,469.94 286.67,469.57 284.04,479.80 C282.82,484.58 281.18,490.75 280.41,493.50 C278.71,499.55 265.93,547.21 262.52,560.20 C252.27,599.34 251.55,601.97 246.33,619.81 C245.48,622.72 244.96,625.29 245.18,625.52 C245.41,625.74 252.32,625.96 260.54,626.01 C280.23,626.13 296.46,627.53 308.00,630.12 C310.48,630.67 316.33,631.79 321.00,632.59 C325.67,633.40 334.67,635.41 341.00,637.06 C351.67,639.85 354.14,640.58 359.50,642.55 C360.60,642.95 362.17,643.39 363.00,643.52 C363.83,643.66 367.65,644.98 371.50,646.46 C375.35,647.94 379.62,649.51 381.00,649.96 C391.29,653.29 417.63,666.41 428.57,673.65 C431.36,675.49 433.93,677.00 434.27,677.00 C435.99,677.00 459.08,693.42 470.00,702.41 C479.71,710.40 508.23,738.10 507.50,738.83 C506.42,739.92 509.43,742.00 512.09,742.00 C514.02,742.00 515.30,741.28 516.10,739.75 ZM 527.00 643.56 C569.26,635.86 599.10,603.58 602.64,561.72 C603.36,553.27 601.07,537.64 597.42,526.00 C594.91,518.02 583.12,493.99 577.42,485.25 C548.28,440.55 528.30,401.93 523.96,381.90 C522.50,375.16 523.40,371.71 528.71,363.64 L 532.29 358.20 L 546.45 358.25 C554.36,358.28 563.00,357.75 566.05,357.05 C593.87,350.68 611.92,339.23 627.10,318.31 C634.24,308.49 641.55,294.04 644.17,284.62 C647.47,272.72 650.00,255.24 650.00,244.29 L 650.00 233.77 L 629.75 234.27 C601.27,234.96 589.81,237.53 569.80,247.69 C557.44,253.96 544.56,264.55 537.38,274.32 C523.84,292.78 516.20,319.44 518.77,339.25 C519.60,345.68 519.51,346.21 516.85,350.22 C515.32,352.54 513.54,355.69 512.91,357.22 C511.82,359.85 509.64,360.89 508.68,359.25 C508.43,358.84 507.95,356.02 507.59,353.00 C505.87,338.27 500.71,325.18 492.19,313.95 C471.85,287.10 436.47,274.03 393.86,277.63 L 386.41 278.26 L 386.76 288.88 C387.60,313.89 397.88,339.10 414.46,356.84 C425.74,368.89 435.06,374.79 451.10,380.03 C461.64,383.48 471.98,384.45 484.50,383.19 C493.34,382.30 493.55,382.33 496.25,384.83 C497.76,386.23 499.00,387.96 499.00,388.67 C499.00,390.84 491.10,409.95 486.04,420.00 C478.57,434.85 463.96,459.65 450.79,479.82 C444.30,489.77 433.27,510.24 430.12,518.17 C423.15,535.77 420.27,556.54 422.93,570.07 C426.04,585.84 433.51,601.85 442.92,612.87 C463.16,636.60 497.14,649.00 527.00,643.56 ZM 562.65 562.54 C562.29,561.60 562.00,558.82 562.00,556.37 C562.00,551.23 559.61,539.59 557.20,533.00 C554.95,526.86 546.78,511.05 541.33,502.28 C538.49,497.73 535.60,491.07 533.51,484.28 C531.68,478.35 528.80,469.49 527.09,464.59 C525.39,459.69 524.01,454.74 524.03,453.59 C524.05,451.78 524.45,451.96 527.04,455.00 C532.91,461.91 534.00,463.33 534.00,464.08 C534.00,465.23 546.51,485.47 552.37,493.79 C561.65,506.99 566.84,516.16 571.60,527.81 C573.70,532.96 574.21,548.63 572.31,549.80 C571.66,550.21 570.22,552.56 569.12,555.02 C568.02,557.48 566.26,560.57 565.21,561.87 C563.53,563.97 563.23,564.05 562.65,562.54 Z" fill="rgb(253,250,245)"/>
</g>
</svg>